<svg width="210" height="202" viewBox="0 0 210 202" fill="none" xmlns="http://www.w3.org/2000/svg">
<ellipse cx="105" cy="101" rx="105" ry="101" fill="#D9D9D9"/>
<path d="M115.214 132.08C116.505 130.918 118.44 130.425 120.202 130.722C122.225 131.06 123.245 132.403 121.129 133.613C119.555 134.514 117.557 134.639 115.812 134.231C115.522 134.166 115.226 134.077 115 133.889C114.284 133.294 114.6 132.632 115.214 132.08Z" fill="#F08428"/>
<path d="M130.572 153.335C127.036 155.365 121.328 157.107 114.784 158.104C105.49 159.521 94.5148 159.436 85.6962 156.549C70.6682 151.632 68.3722 138.583 69.4158 132.91C69.8414 130.597 71.0294 128.695 72.2882 127.25C72.4131 127.106 72.5387 126.967 72.6642 126.833C74.6658 124.693 77.609 123.899 80.5299 123.663L127.069 119.904C128.958 119.751 130.875 120.041 132.471 121.062C134.26 122.204 136.652 124.063 138.47 126.693C139.133 127.652 139.721 128.715 140.173 129.884C142.886 136.881 139.129 148.417 130.572 153.335Z" fill="#FCD17B"/>
<path d="M132.471 121.062C136.894 123.886 137.912 129.925 134.382 133.808C128.394 140.395 116.34 145.601 97.1759 143.5C81.8844 141.825 75.8454 135.461 73.4645 130.534C72.5093 128.558 73.7862 125.543 75.6128 124.325C76.4413 123.773 76.6093 123.98 77.6017 123.9L127.069 119.904C128.958 119.751 130.875 120.041 132.471 121.062Z" fill="#E6AC5A"/>
<path d="M100.891 136.363C102.29 135.573 104.183 135.456 105.784 135.987C107.62 136.595 108.357 137.907 106.178 138.61C104.556 139.131 102.667 138.924 101.1 138.302C100.839 138.198 100.576 138.077 100.395 137.88C99.8224 137.257 100.225 136.739 100.891 136.363Z" fill="#F08428"/>
<path d="M126.683 126.707C128.081 125.916 129.975 125.799 131.578 126.331C133.412 126.939 134.151 128.25 131.97 128.954C130.35 129.475 128.459 129.267 126.892 128.645C126.631 128.541 126.368 128.418 126.188 128.223C125.617 127.6 126.019 127.083 126.683 126.707Z" fill="#F08428"/>
<path d="M114.783 158.103C114.783 158.103 114.783 158.104 114.783 158.104C114.783 158.104 114.783 158.104 114.783 158.104C121.327 157.107 127.035 155.365 130.571 153.334C131.59 152.748 132.542 152.069 133.423 151.315C132.542 152.069 131.59 152.748 130.57 153.334C127.034 155.365 121.326 157.107 114.783 158.103Z" fill="#D1B36D"/>
<path d="M130.572 153.334C127.722 154.971 123.771 148.662 124.1 145.392C124.161 144.772 124.178 144.174 124.155 143.599C124.126 142.894 124.329 142.213 124.646 141.583C125.026 140.826 125.554 140.098 126.313 139.723C131.588 137.125 135.133 133.62 137.093 130.039C137.784 128.776 139.65 128.542 140.171 129.884C142.561 136.047 139.931 145.732 133.423 151.315C132.542 152.069 131.59 152.748 130.572 153.334Z" fill="#F2B75C"/>
<path d="M126.645 139.558C126 139.885 125.234 139.3 125.143 138.583C124.726 135.368 127.23 133.856 130.152 132.153C131.09 131.609 131.426 130.672 131.449 129.652C131.457 129.334 131.666 129.051 131.97 128.954C134.151 128.25 133.412 126.939 131.578 126.331C131.25 126.221 131.139 125.774 131.4 125.548C132.098 124.942 132.745 124.312 133.345 123.666C133.957 123.005 134.983 122.883 135.648 123.491C136.209 124.005 136.768 124.571 137.304 125.192C138.091 126.105 138.308 127.379 137.841 128.49C136.149 132.516 132.485 136.598 126.645 139.558Z" fill="#DD9643"/>
<path d="M131.97 128.954C131.69 129.043 131.414 128.835 131.369 128.546C131.234 127.68 130.954 126.832 130.696 126.178C130.689 126.159 130.695 126.138 130.71 126.126C130.72 126.118 130.734 126.114 130.747 126.116C131.029 126.169 131.307 126.24 131.578 126.331C133.412 126.939 134.151 128.25 131.97 128.954Z" fill="#EEA249"/>
<path d="M80.5342 132.405C81.9325 131.614 83.8257 131.495 85.427 132.027C87.2639 132.637 88.0001 133.948 85.8216 134.65C84.1999 135.173 82.3108 134.964 80.7413 134.342C80.4804 134.24 80.2195 134.116 80.0377 133.92C79.4653 133.298 79.8689 132.781 80.5342 132.405Z" fill="#F08428"/>
<path d="M85.4375 134.275C87.886 132.272 93.4457 132.148 95.4726 134.291C96.7208 135.609 93.5125 136.953 92.5301 137.245C90.3385 137.893 87.9023 137.863 85.7041 137.262C85.3935 137.176 85.078 137.074 84.8399 136.878C84.3099 136.435 84.3377 135.631 84.707 135.07C84.8986 134.778 85.1473 134.514 85.4375 134.275Z" fill="#F08428"/>
<path d="M111.87 138.139C114.317 136.134 119.879 136.011 121.906 138.154C123.154 139.472 119.946 140.815 118.962 141.106C116.771 141.755 114.335 141.725 112.137 141.123C111.827 141.038 111.511 140.938 111.273 140.739C110.743 140.299 110.77 139.495 111.139 138.934C111.332 138.642 111.58 138.377 111.87 138.139Z" fill="#F08428"/>
<path d="M119.937 144.665C118.245 144.665 119.04 142.418 120.661 141.93C121.324 141.731 121.968 141.519 122.593 141.295C123.2 141.078 123.876 141.4 123.987 142.034C124.039 142.325 123.96 142.634 123.758 142.85C122.856 143.815 121.623 144.457 120.342 144.635C120.202 144.656 120.067 144.665 119.937 144.665Z" fill="#E29829"/>
<path d="M117.948 142.649C117.649 142.718 117.343 142.574 117.226 142.291C117.062 141.897 117.337 141.468 117.756 141.392C118.164 141.319 118.567 141.223 118.962 141.106C119.945 140.815 123.154 139.472 121.905 138.154C120.906 137.097 119.044 136.59 117.121 136.59C114.94 136.59 112.673 136.478 110.521 136.123C109.636 135.977 108.644 135.894 107.541 135.894C107.097 135.894 106.631 135.908 106.149 135.936C105.842 135.955 105.537 135.903 105.237 135.833C104.749 135.719 104.243 135.662 103.74 135.662C103.647 135.662 103.553 135.664 103.46 135.668C103.192 135.68 102.787 135.633 102.531 135.552C100.661 134.967 101.686 133.029 103.645 133.036C103.759 133.037 103.872 133.037 103.986 133.037C106.939 133.037 109.854 132.885 112.626 132.574C114.747 132.336 116.957 132.603 118.653 133.897C119.937 134.878 121.233 136.128 122.246 137.679C123.34 139.355 122.302 141.451 120.381 142.014C119.596 142.243 118.785 142.456 117.948 142.649Z" fill="#DD9022"/>
<path d="M105.397 135.959C104.791 135.959 104.236 135.913 103.727 135.832C103.598 135.811 103.609 135.662 103.74 135.662C104.302 135.662 104.868 135.733 105.409 135.875C105.463 135.89 105.453 135.959 105.397 135.959Z" fill="#E19323"/>
<path d="M124.696 141.481C124.502 141.887 123.942 141.745 123.835 141.308C123.773 141.054 123.913 140.796 124.155 140.696C124.548 140.535 124.957 140.871 124.793 141.263C124.762 141.336 124.73 141.409 124.696 141.481Z" fill="#E09222"/>
<path d="M124.66 140.484C124.162 140.698 123.592 140.418 123.397 139.912C122.204 136.829 119.825 134.643 117.693 133.21C117.123 132.827 117.288 131.876 117.961 131.738C121.189 131.072 124.072 130.141 126.395 128.938C126.733 128.764 127.128 128.743 127.491 128.857C128.286 129.106 129.14 129.249 129.985 129.249C130.755 129.249 131.524 129.8 131.334 130.546C131.168 131.203 130.806 131.773 130.152 132.153C127.23 133.855 124.725 135.368 125.143 138.583C125.198 139.014 125.202 139.43 125.16 139.829C125.129 140.124 124.933 140.367 124.66 140.484Z" fill="#DB8B1D"/>
<path d="M129.985 129.249C129.863 129.249 129.741 129.246 129.619 129.24C128.522 129.188 128.413 127.806 129.313 127.176C130.029 126.676 131.018 126.97 131.223 127.818C131.231 127.852 131.239 127.887 131.247 127.921C131.401 128.588 130.936 129.219 130.252 129.244C130.163 129.247 130.074 129.249 129.985 129.249Z" fill="#DF8E1E"/>
<path d="M118.779 141.159C117.722 141.453 116.723 140.759 116.377 139.718C116.34 139.609 116.296 139.499 116.243 139.388C115.695 138.24 115.849 136.59 117.121 136.59C119.044 136.59 120.906 137.097 121.905 138.154C123.154 139.472 119.945 140.815 118.962 141.106C118.901 141.124 118.84 141.142 118.779 141.159Z" fill="#E19323"/>
<path d="M100.561 147.96C100.484 148.907 100.85 150.286 102.121 150.409C103.479 150.539 104.176 149.056 104.072 148.036C104.042 147.739 103.556 147.634 103.467 147.962C103.293 148.593 103.273 149.917 102.169 149.791C101.269 149.687 101.115 148.597 101.144 147.96C101.159 147.617 100.589 147.623 100.561 147.96Z" fill="#824E2D"/>
<path d="M95.7857 146.012C95.7792 144.777 96.2219 144.037 96.9361 144.058C97.6495 144.077 97.8941 144.659 98.0189 145.689C98.1445 146.718 97.6601 147.476 97.1155 147.544C96.5684 147.611 95.7939 147.205 95.7857 146.012Z" fill="#824E2D"/>
<path d="M107.136 146.432C107.13 145.197 107.572 144.457 108.286 144.478C109 144.497 109.242 145.08 109.367 146.108C109.495 147.135 109.01 147.895 108.464 147.964C107.917 148.032 107.142 147.625 107.136 146.432Z" fill="#824E2D"/>
<path d="M126.395 128.938C124.072 130.141 121.19 131.072 117.961 131.737C106.978 134.008 92.0058 133.247 81.5199 129.884C67.9529 125.534 66.4919 112.107 67.118 107.568C67.3643 105.785 68.416 104.147 69.6015 102.817C71.1229 101.11 72.8661 99.9068 73.4123 99.5478C73.5267 99.4732 73.6604 99.4358 73.7969 99.4349L80.7013 99.3912H80.7535L131.895 99.0713C133.193 99.0627 134.457 99.5236 135.343 100.472C135.555 100.698 135.782 100.948 136.015 101.218C137.641 103.09 139.63 105.929 139.754 108.703C139.962 113.431 136.623 123.643 126.395 128.938Z" fill="#FCD17B"/>
<path d="M127.648 115.322C126.627 116.287 125.521 117.139 124.337 117.891C114.156 124.352 98.3597 123.17 83.3985 119.104C73.7492 116.482 70.7212 110.384 69.8842 105.705C69.5554 103.867 70.7088 101.575 72.1843 100.431C73.2836 99.5778 74.1501 99.5319 75.5411 99.502L80.7014 99.3912H80.7536L130.492 98.3212C131.066 98.3088 131.614 98.57 131.895 99.0713C132.177 99.5758 132.529 100.318 132.805 101.252C133.713 104.338 133.773 109.535 127.648 115.322Z" fill="#E6AC5A"/>
<path d="M105.178 109.092C108.651 106.853 116.124 107.177 118.643 109.965C120.191 111.682 115.763 113.05 114.414 113.322C111.413 113.927 108.148 113.683 105.253 112.762C104.846 112.631 104.433 112.482 104.133 112.219C103.46 111.634 103.575 110.655 104.124 110.002C104.41 109.662 104.765 109.359 105.178 109.092Z" fill="#F08428"/>
<path d="M126.395 128.938C124.573 129.882 122.827 126.891 123.678 125.023C124.25 123.767 124.65 122.365 124.738 120.831C124.84 119.08 125.403 117.259 126.744 116.129C127.052 115.869 127.354 115.6 127.648 115.322C131.617 111.573 132.989 108.071 133.215 105.23C133.282 104.399 133.724 103.574 134.39 103.073C135.483 102.251 137.02 102.375 137.774 103.515C138.813 105.086 139.674 106.908 139.754 108.703C139.759 108.843 139.764 108.984 139.762 109.132C139.762 111.08 139.217 113.8 137.937 116.691C136.514 119.902 134.184 123.328 130.684 126.147C129.555 127.057 128.305 127.902 126.925 128.657C126.75 128.753 126.575 128.846 126.395 128.938Z" fill="#F2B75C"/>
<path d="M127.648 115.322C126.099 116.786 123.612 115.914 122.24 114.284C121.504 113.41 120.679 112.636 119.871 111.973C119.292 111.498 119.144 110.522 118.643 109.965C118.502 109.808 118.575 109.54 118.783 109.499C119.701 109.317 120.583 109.119 121.431 108.907C121.543 108.879 121.66 108.868 121.776 108.868C122.459 108.868 123.198 108.697 123.949 108.328C124.315 108.148 124.771 107.94 125.156 107.808C128.924 106.523 132.712 109.134 130.337 112.329C129.613 113.303 128.726 114.303 127.648 115.322Z" fill="#DD9643"/>
<path d="M118.947 110.508C119.026 110.867 118.57 110.981 118.267 110.773C118.136 110.684 118.008 110.598 117.883 110.516C117.529 110.284 117.64 109.715 118.057 109.638C118.192 109.613 118.329 109.65 118.428 109.745C118.504 109.816 118.575 109.89 118.643 109.965C118.81 110.15 118.907 110.332 118.947 110.508Z" fill="#EEA249"/>
<path d="M141.424 93.5736C139.963 99.058 131.822 111.54 101.349 110.783C70.8752 110.027 67.7444 93.5736 70.0403 87.5219C70.6225 85.9861 71.4614 84.6925 72.3885 83.6184C73.4465 82.3929 74.6197 81.4528 75.6588 80.7614C77.4972 79.5382 79.7041 79.1816 81.912 79.1472C93.8484 78.9609 134.043 78.3961 135.997 79.2008C136.819 79.5391 137.937 80.778 138.965 82.4786C140.806 85.5229 142.36 90.0543 141.424 93.5736Z" fill="#FCD17B"/>
<path d="M101.763 113.047C103.684 111.916 106.27 111.727 108.449 112.461C110.947 113.3 111.936 115.142 108.95 116.158C106.731 116.915 104.153 116.642 102.022 115.78C101.667 115.636 101.31 115.467 101.066 115.193C100.294 114.319 100.851 113.586 101.763 113.047Z" fill="#F08428"/>
<path d="M135.997 79.2008C138.665 80.2991 138.817 84.1256 137.497 86.691C136.539 88.5531 135.03 90.6673 132.657 92.8172C125.561 99.2471 112.346 100.754 91.891 98.2956C80.648 96.9443 75.619 92.339 73.5861 88.4644C72.0585 85.5529 74.5967 81.1342 77.5411 79.6709C79.1032 78.8946 79.4686 79.1857 81.2127 79.1581C92.1809 78.9847 134.003 78.3796 135.997 79.2008Z" fill="#E6AC5A"/>
<path d="M93.4498 88.1329C95.3707 86.9996 97.9569 86.8127 100.135 87.5448C102.634 88.384 103.623 90.2264 100.637 91.2437C98.4176 92.0001 95.8404 91.7261 93.7091 90.8654C93.3544 90.7221 92.9973 90.5515 92.7527 90.2774C91.9806 89.4057 92.5383 88.6699 93.4498 88.1329Z" fill="#F08428"/>
<path d="M127.856 86.3872C117.629 89.7913 95.9217 89.7913 86.3204 86.9546C76.7191 84.1178 64.1957 75.9858 71.0836 60.8565C71.7285 59.4359 73.6356 57.6659 76.5292 55.9055C83.4211 51.7124 95.9168 47.5747 110.324 48.3748C121.909 49.0175 129.814 53.1197 134.829 57.8269C138.668 61.4297 140.818 65.3879 141.632 68.4211C143.511 75.4184 138.084 82.9831 127.856 86.3872Z" fill="#FCD17B"/>
<path d="M124.725 72.2035C112.828 77.1205 94.0431 77.3096 82.1459 71.2579C76.6596 68.4671 75.1673 64.752 75.1525 61.5581C75.1346 57.7265 78.2332 54.7575 81.752 53.2411C88.9176 50.1531 99.0337 47.7478 110.324 48.3748C118.793 48.8446 125.296 51.1634 130.14 54.2157C133.414 56.2783 135.82 60.0374 134.44 63.6518C133.286 66.6722 130.461 69.8334 124.725 72.2035Z" fill="#E6AC5A"/>
<path d="M110.29 51.8224C112.21 50.6892 114.797 50.5023 116.975 51.2344C119.474 52.0736 120.463 53.916 117.476 54.9332C115.257 55.6897 112.68 55.4156 110.549 54.555C110.194 54.4117 109.837 54.2411 109.593 53.967C108.82 53.0953 109.378 52.3595 110.29 51.8224Z" fill="#F08428"/>
<path d="M88.1419 59.6515C89.4317 58.4902 91.3689 57.9968 93.1308 58.2937C95.1512 58.6321 96.1736 59.9751 94.057 61.1852C92.4835 62.0857 90.4859 62.2105 88.7411 61.8042C88.4509 61.7377 88.1549 61.6491 87.9291 61.4614C87.2132 60.866 87.5287 60.2041 88.1419 59.6515Z" fill="#F08428"/>
<path d="M120.542 92.4862C121.835 91.3249 123.769 90.8314 125.533 91.1262C127.553 91.4668 128.576 92.8098 126.457 94.0198C124.884 94.9203 122.886 95.0452 121.142 94.6382C120.851 94.5702 120.555 94.483 120.329 94.2961C119.614 93.7007 119.929 93.0388 120.542 92.4862Z" fill="#F08428"/>
<path d="M76.4185 110.063C77.7083 108.902 79.6455 108.406 81.4066 108.703C83.427 109.044 84.4502 110.384 82.3336 111.597C80.7601 112.496 78.7625 112.62 77.0177 112.215C76.7275 112.147 76.4307 112.06 76.2057 111.871C75.4898 111.277 75.8045 110.613 76.4185 110.063Z" fill="#F08428"/>
<path d="M105.153 66.2537C106.554 65.4632 108.447 65.3458 110.048 65.8776C111.884 66.4864 112.621 67.7969 110.44 68.5009C108.82 69.0224 106.93 68.8149 105.362 68.1921C105.101 68.0879 104.838 67.9653 104.659 67.7703C104.087 67.1483 104.489 66.6304 105.153 66.2537Z" fill="#F08428"/>
<path d="M97.9065 68.7654C99.3047 67.9749 101.198 67.856 102.799 68.3871C104.636 68.9981 105.375 70.3086 103.194 71.0104C101.574 71.5342 99.683 71.3244 98.1152 70.7016C97.8543 70.5982 97.5917 70.477 97.4115 70.2805C96.8376 69.6578 97.2403 69.1399 97.9065 68.7654Z" fill="#F08428"/>
<path d="M84.5837 65.3857C85.982 64.5938 87.8752 64.4763 89.4756 65.0075C91.3126 65.6184 92.0513 66.9274 89.8703 67.6307C88.251 68.153 86.3595 67.9447 84.7924 67.3227C84.5315 67.2185 84.2682 67.0973 84.0888 66.9008C83.5148 66.2788 83.9176 65.7602 84.5837 65.3857Z" fill="#F08428"/>
<path d="M104.195 93.0041C105.594 92.2137 107.486 92.0948 109.088 92.6259C110.925 93.2369 111.661 94.5474 109.482 95.2492C107.862 95.7729 105.972 95.5631 104.404 94.9411C104.143 94.8392 103.88 94.7158 103.698 94.5193C103.127 93.8973 103.53 93.3787 104.195 93.0041Z" fill="#F08428"/>
<path d="M99.4528 63.4892C101.901 61.4865 107.462 61.3631 109.489 63.504C110.736 64.8219 107.529 66.1671 106.545 66.4582C104.354 67.1068 101.918 67.0765 99.7202 66.4752C99.4088 66.3902 99.094 66.2898 98.856 66.0911C98.326 65.6486 98.3529 64.8448 98.7223 64.2848C98.9147 63.9938 99.1625 63.7293 99.4528 63.4892Z" fill="#F08428"/>
<path d="M79.4702 57.405C81.9161 55.4023 87.4767 55.2796 89.5052 57.4205C90.751 58.7384 87.5452 60.0829 86.5619 60.374C84.3703 61.0226 81.9349 60.9923 79.7352 60.391C79.4261 60.306 79.1106 60.2055 78.8725 60.0076C78.3409 59.5651 78.3695 58.7613 78.7396 58.2013C78.9312 57.9103 79.1775 57.6436 79.4702 57.405Z" fill="#F08428"/>
<path d="M119.841 63.3416C122.438 61.4977 127.994 61.7267 129.852 63.9924C130.993 65.3857 127.691 66.5241 126.687 66.7516C124.452 67.2599 122.025 67.0767 119.877 66.3372C119.576 66.233 119.27 66.1119 119.046 65.9006C118.549 65.4256 118.641 64.6255 119.052 64.0885C119.266 63.8107 119.532 63.561 119.841 63.3416Z" fill="#F08428"/>
<path d="M87.2282 112.4C89.8225 110.556 95.3806 110.785 97.2363 113.049C98.3802 114.443 95.0781 115.581 94.0745 115.81C91.8388 116.319 89.4116 116.133 87.264 115.394C86.9607 115.29 86.6542 115.169 86.4332 114.957C85.9359 114.482 86.0264 113.683 86.4373 113.147C86.6526 112.867 86.9192 112.62 87.2282 112.4Z" fill="#F08428"/>
<path d="M101.555 54.0482C105.028 51.809 112.501 52.1304 115.018 54.9199C116.568 56.6352 112.14 58.0048 110.791 58.2767C107.79 58.8817 104.525 58.6379 101.63 57.7167C101.223 57.5867 100.81 57.4353 100.509 57.1745C99.8372 56.5902 99.9522 55.6106 100.501 54.9561C100.785 54.6177 101.142 54.3148 101.555 54.0482Z" fill="#F08428"/>
<path d="M84.2895 90.1658C87.7603 87.9244 95.2344 88.248 97.7521 91.0375C99.3004 92.7528 94.8716 94.1217 93.5255 94.3943C90.5235 94.9993 87.2597 94.7555 84.3645 93.8329C83.9576 93.7043 83.5443 93.5529 83.2434 93.2921C82.5716 92.7078 82.6865 91.7275 83.2353 91.0737C83.519 90.7346 83.8761 90.4325 84.2895 90.1658Z" fill="#F08428"/>
<path d="M79.6416 47.8074C81.1924 44.8118 87.9384 42.0829 92.7634 45.7973C97.5918 49.5094 96.1307 56.1285 88.8254 57.4523C81.5201 58.7761 76.5108 53.8591 79.6416 47.8074Z" fill="#E3591E"/>
<path d="M88.8268 57.4523C87.0051 57.7826 85.3261 57.7246 83.8806 57.3577C80.9491 56.6135 84.3645 54.3403 87.3217 53.7062C90.9215 52.9357 96.2757 52.8566 93.5354 55.3147C92.4186 56.3165 90.846 57.0868 88.8268 57.4523Z" fill="#CF511C"/>
<path d="M83.918 80.6907C83.9204 81.6422 84.2808 82.7407 85.4288 82.9963C86.6338 83.2645 87.7859 82.361 88.0044 81.3209C88.0965 80.8799 87.3913 80.5282 87.1467 80.9914C86.8711 81.5152 86.4202 82.3152 85.6106 82.0788C85.0097 81.903 84.907 81.1731 84.8923 80.6907C84.8735 80.1256 83.9155 80.1219 83.918 80.6907Z" fill="#824E2D"/>
<path d="M107.754 104.342C108.067 105.246 108.602 106.345 109.866 106.233C110.945 106.139 111.638 105.038 111.502 104.123C111.448 103.752 110.864 103.61 110.734 104.028C110.584 104.514 110.515 105.246 109.837 105.369C109.113 105.503 108.708 104.635 108.509 104.154C108.336 103.735 107.601 103.9 107.754 104.342Z" fill="#824E2D"/>
<path d="M88.0507 125.175C87.8999 126.109 87.8795 127.445 89.1547 127.737C90.438 128.033 91.1628 126.722 91.3088 125.786C91.3691 125.408 90.8016 125.243 90.6638 125.623C90.4698 126.156 90.1901 127.338 89.2802 127.083C88.5016 126.868 88.6435 125.799 88.7038 125.257C88.7438 124.922 88.1045 124.841 88.0507 125.175Z" fill="#824E2D"/>
<path d="M80.9249 76.1978C81.3008 75.0099 81.9538 74.4122 82.6322 74.6124C83.313 74.8134 83.3652 75.4339 83.1662 76.4526C82.9705 77.4721 82.271 78.0771 81.7264 78.004C81.1793 77.9301 80.5613 77.3435 80.9249 76.1978Z" fill="#824E2D"/>
<path d="M91.6888 79.4807C92.0647 78.2928 92.7178 77.6974 93.3977 77.8961C94.0761 78.0963 94.1283 78.7183 93.9326 79.7363C93.7361 80.755 93.0349 81.3608 92.4903 81.2869C91.9456 81.2145 91.3276 80.6287 91.6888 79.4807Z" fill="#824E2D"/>
<path d="M101.991 102.851C101.876 101.621 102.252 100.852 102.966 100.821C103.68 100.788 103.972 101.352 104.187 102.368C104.402 103.385 103.986 104.175 103.448 104.282C102.908 104.39 102.102 104.039 101.991 102.851Z" fill="#824E2D"/>
<path d="M113.34 102.456C113.226 101.225 113.602 100.457 114.317 100.427C115.03 100.395 115.323 100.959 115.537 101.974C115.752 102.989 115.335 103.782 114.797 103.888C114.258 103.996 113.45 103.646 113.34 102.456Z" fill="#824E2D"/>
<path d="M83.6692 122.826C84.0263 121.634 84.6712 121.029 85.3537 121.221C86.0361 121.414 86.0972 122.033 85.9171 123.055C85.7361 124.076 85.0447 124.689 84.4984 124.623C83.9513 124.557 83.3251 123.978 83.6692 122.826Z" fill="#824E2D"/>
<path d="M94.4836 125.975C94.8399 124.782 95.4848 124.176 96.168 124.369C96.8505 124.561 96.9108 125.18 96.7314 126.202C96.5496 127.223 95.859 127.838 95.3119 127.772C94.7649 127.703 94.1387 127.127 94.4836 125.975Z" fill="#824E2D"/>
<path d="M121.776 108.868C121.748 108.868 121.743 108.827 121.77 108.82C122.169 108.717 122.56 108.611 122.943 108.502C123.162 108.439 123.237 108.626 123.018 108.688C122.591 108.81 122.174 108.868 121.776 108.868Z" fill="#DB8B1D"/>
<path d="M123.236 108.417C122.177 108.727 120.974 108.965 120.01 108.427C118.765 107.732 118.052 106.265 118.431 104.38C118.687 103.101 120.419 98.4018 121.69 98.1063C123.396 97.7094 124.97 97.2198 126.413 96.635C128.012 95.9871 128.828 96.7088 127.312 97.5325C126.772 97.8258 126.269 98.19 125.89 98.7781C124.4 101.097 129.941 102.642 126.105 106.697C125.923 106.888 125.74 107.066 125.555 107.231C124.891 107.822 124.089 108.167 123.236 108.417Z" fill="#E29829"/>
<path d="M116.166 99.0221C114.938 99.1553 113.699 98.9708 112.463 98.9708C110.33 98.9708 108.412 95.1094 113.527 92.9834C113.699 92.9121 113.864 92.8429 114.023 92.7754C117.266 91.402 120.96 88.0807 124.398 87.3224C125.357 87.1109 126.238 87.1049 127.128 87.5197C128.67 88.2386 130.886 89.8099 130.85 92.8947C130.839 93.8494 130.261 94.6798 129.437 95.1606C125.999 97.1644 121.597 98.433 116.166 99.0221ZM124.512 91.0434C123.058 91.0434 121.588 91.5465 120.542 92.4862C119.929 93.0388 119.614 93.7007 120.329 94.2961C120.555 94.483 120.851 94.5702 121.142 94.6381C121.76 94.7822 122.409 94.8597 123.06 94.8597C124.247 94.8597 125.442 94.6027 126.457 94.0198C128.577 92.8097 127.553 91.4667 125.533 91.1262C125.197 91.0715 124.855 91.0434 124.512 91.0434ZM133.15 90.4266C131.511 90.4266 129.931 89.2978 130.58 87.3837C130.73 86.9398 130.88 86.461 131.025 85.9582C131.197 85.361 131.609 84.8617 132.16 84.5736C132.441 84.4266 132.717 84.276 132.987 84.1221C133.966 83.5646 135.176 84.2124 135.911 85.0656C137.401 86.8031 136.55 89.122 134.631 90.086C134.175 90.3173 133.658 90.4266 133.15 90.4266Z" fill="#DD9022"/>
<path d="M118.585 88.2897C118.116 88.3469 117.68 88.0373 117.579 87.5764C116.938 84.6791 114.381 76.7613 111.609 75.7943C111.407 75.7243 111.448 75.4445 111.66 75.4197C116.418 74.8631 120.924 73.7752 124.726 72.2033C126.908 71.3014 128.67 70.2848 130.078 69.205C133.723 66.4095 140.404 64.8216 139.106 69.2284C138.254 72.1258 136.124 73.864 135.483 75.9879C135.094 77.2827 134.783 79.7289 134.938 81.8333C134.982 82.4325 134.771 83.0118 134.268 83.3405C133.143 84.0755 131.762 83.022 131.939 81.6901C132.088 80.5671 132.149 79.4703 132.073 78.4988C131.951 76.9593 131 76.2959 129.849 76.2959C128.979 76.2959 127.996 76.6742 127.169 77.3398C125.252 78.8852 125.464 81.589 126.956 83.7128C128.378 85.7369 125.934 86.8825 125.696 86.9878C125.689 86.9906 125.68 86.9964 125.687 86.998C125.694 86.9997 125.706 87.0126 125.699 87.0144C123.603 87.547 121.186 87.9721 118.585 88.2897Z" fill="#E29829"/>
<path d="M111.869 75.3949C111.225 75.4726 110.569 75.3734 109.991 75.0785C109.007 74.5771 107.906 73.9271 106.814 73.2519C105.379 72.3646 104.4 68.9188 102.799 68.3871C102.15 68.1714 101.45 68.0635 100.755 68.0635C99.7407 68.0635 98.737 68.2962 97.9062 68.7653C97.8048 68.8224 97.7095 68.8828 97.6228 68.9465C97.2843 69.1951 96.9144 69.4821 96.4957 69.5159C95.7562 69.5728 95.0093 69.6311 94.2764 69.6311C93.3395 69.6311 92.4231 69.5366 91.5711 69.2285C90.8799 68.9772 90.259 68.5195 89.7721 67.9427C89.6812 67.8351 89.7365 67.6746 89.8703 67.6306C92.0513 66.9273 91.3126 65.6183 89.4757 65.0074C89.0452 64.8651 88.7237 64.4572 88.8666 64.0268C89.1031 63.3144 89.5901 62.6446 90.389 62.1037C90.4678 62.0504 90.562 62.0251 90.6571 62.0251C91.8467 62.0251 93.0411 61.768 94.057 61.1851C94.5396 60.9133 95.0298 60.6313 95.5696 60.5067C97.2139 60.1271 98.7053 59.7593 100.028 59.3933C102.407 58.7349 104.913 58.6077 107.382 58.6077C108.532 58.6077 109.68 58.4998 110.791 58.2767C111.495 58.1351 113.043 57.693 114.137 57.0579C115.105 56.4963 116.417 55.2933 117.476 54.9332C117.895 54.789 118.347 54.731 118.769 54.8622C120.804 55.4943 121.989 56.5139 122.266 58.0256C122.695 60.3437 132.072 61.5035 134.205 61.6963C134.649 61.7367 134.883 62.2102 134.768 62.6406C133.885 65.9511 131.105 69.5673 124.725 72.2034C120.979 73.7521 116.55 74.8311 111.869 75.3949ZM103.477 66.9306C103.899 66.9199 104.372 67.4604 104.659 67.7702C104.838 67.9653 105.101 68.0879 105.362 68.1921C106.318 68.5703 107.392 68.7971 108.455 68.7971C109.133 68.7971 109.807 68.7047 110.44 68.5009C112.621 67.7968 111.884 66.4863 110.048 65.8776C109.588 65.7253 109.441 64.9718 109.664 64.5412C109.837 64.2072 109.821 63.8547 109.489 63.504C108.488 62.4469 106.627 61.9416 104.704 61.9416C102.732 61.9416 100.693 62.475 99.4529 63.4893C99.1626 63.7293 98.9147 63.9938 98.7223 64.2849C98.353 64.8448 98.3261 65.6486 98.856 66.0911C99.0941 66.2898 99.4088 66.3903 99.7203 66.4752C100.824 66.7774 101.991 66.9347 103.154 66.9347C103.261 66.9347 103.369 66.9334 103.477 66.9306ZM124.497 62.1086C122.751 62.1086 121.001 62.5186 119.841 63.3415C119.532 63.5609 119.265 63.8106 119.052 64.0884C118.641 64.6254 118.549 65.4255 119.046 65.9005C119.269 66.1118 119.576 66.2329 119.877 66.3371C121.206 66.7944 122.64 67.0389 124.072 67.0389C124.955 67.0389 125.835 66.9458 126.687 66.7515C127.691 66.524 130.993 65.3856 129.851 63.9923C128.822 62.738 126.662 62.1086 124.497 62.1086Z" fill="#DD9022"/>
<path d="M115.806 55.3082C115.502 55.3446 115.223 55.1468 115.018 54.92C114.907 54.7975 114.787 54.6796 114.658 54.5663C114.5 54.4278 114.597 54.1446 114.807 54.1636C115.776 54.247 116.656 54.3668 117.444 54.5272C117.669 54.5731 117.694 54.8585 117.477 54.9333C116.937 55.117 116.376 55.2398 115.806 55.3082Z" fill="#E19323"/>
<path d="M90.6572 62.0252C90.613 62.0252 90.5976 61.9698 90.6355 61.9472C91.2207 61.598 91.9515 61.3129 92.8512 61.1158C93.2124 61.0368 93.5686 60.9583 93.9189 60.8804C94.1482 60.8295 94.2617 61.0699 94.0571 61.1852C93.0412 61.7681 91.8467 62.0252 90.6572 62.0252Z" fill="#E19323"/>
<path d="M123.06 94.8598C122.409 94.8598 121.76 94.7822 121.142 94.6382C120.851 94.5702 120.555 94.483 120.329 94.2961C119.614 93.7007 119.929 93.0388 120.542 92.4862C121.588 91.5465 123.058 91.0435 124.512 91.0435C124.855 91.0435 125.197 91.0715 125.533 91.1262C127.553 91.4668 128.576 92.8098 126.457 94.0198C125.442 94.6027 124.247 94.8598 123.06 94.8598Z" fill="#E19323"/>
<path d="M108.455 68.7972C107.393 68.7972 106.318 68.5704 105.362 68.1922C105.101 68.088 104.838 67.9654 104.659 67.7704C104.237 67.3135 104.841 66.8386 105.453 66.7223C105.822 66.652 106.187 66.5641 106.546 66.4584C106.699 66.4125 106.907 66.3411 107.145 66.2482C108.081 65.881 109.093 65.5617 110.048 65.8777C111.885 66.4864 112.622 67.797 110.441 68.501C109.808 68.7049 109.134 68.7972 108.455 68.7972Z" fill="#E19323"/>
<path d="M104.523 69.7531C104.718 70.9597 102.663 70.585 101.59 70.0006C100.73 69.5329 99.7308 69.4007 98.666 69.4007C98.5137 69.4007 98.3601 69.4033 98.2055 69.4081C97.7276 69.4227 97.4894 68.9999 97.9061 68.7654C98.737 68.2963 99.7406 68.0636 100.755 68.0636C101.45 68.0636 102.15 68.1715 102.799 68.3872C103.773 68.7106 104.438 69.2308 104.523 69.7531Z" fill="#E19323"/>
<path d="M89.8706 67.6306C89.7037 67.6855 89.5201 67.6218 89.4241 67.4746C89.0536 66.9065 88.8044 66.2607 88.7222 65.5996C88.6697 65.1783 89.0728 64.8741 89.4759 65.0073C91.3129 65.6183 92.0515 66.9273 89.8706 67.6306Z" fill="#E19323"/>
<path d="M103.154 66.9348C101.991 66.9348 100.824 66.7774 99.7202 66.4753C99.4088 66.3903 99.094 66.2899 98.856 66.0911C98.326 65.6486 98.3529 64.8449 98.7223 64.2849C98.9147 63.9939 99.1625 63.7294 99.4528 63.4893C100.693 62.475 102.732 61.9417 104.704 61.9417C106.627 61.9417 108.488 62.4469 109.489 63.5041C110.196 64.2509 109.472 65.0059 108.535 65.5733C107.816 66.0077 106.971 66.3312 106.545 66.4583C105.871 66.657 105.174 66.7929 104.469 66.8668C104.032 66.9119 103.594 66.9348 103.154 66.9348Z" fill="#E19323"/>
<path d="M124.072 67.039C122.64 67.039 121.206 66.7945 119.877 66.3372C119.576 66.233 119.27 66.1119 119.046 65.9006C118.549 65.4256 118.641 64.6255 119.052 64.0885C119.266 63.8107 119.532 63.561 119.841 63.3416C121.001 62.5186 122.751 62.1086 124.498 62.1086C126.662 62.1086 128.823 62.738 129.852 63.9924C130.993 65.3857 127.691 66.5241 126.687 66.7516C125.835 66.9459 124.955 67.039 124.072 67.039Z" fill="#E19323"/>
<path d="M107.382 58.6077C106.869 58.6077 106.356 58.5865 105.845 58.5447C105.188 58.4911 105.083 57.6051 105.64 57.2536C107.6 56.0111 109.918 54.1162 113.753 54.1162C113.959 54.1162 114.161 54.1776 114.326 54.2998C114.585 54.4913 114.817 54.698 115.018 54.92C115.151 55.0677 115.241 55.2132 115.291 55.3551C115.827 56.8643 112.022 58.0293 110.791 58.2768C109.68 58.4999 108.532 58.6077 107.382 58.6077Z" fill="#E19323"/>
<path d="M94.1036 67.2731C94.1949 67.2015 94.2911 67.1335 94.3808 67.0611C94.592 66.8912 94.0718 67.262 94.3017 67.1165C94.4999 66.9894 94.6939 66.8631 94.8986 66.7457C95.082 66.64 95.2744 66.5469 95.4603 66.445C96.0384 66.1273 96.3702 65.7166 96.6018 65.1441C96.967 64.2377 96.1884 63.0823 95.1823 62.8762C94.517 62.7402 93.9055 62.806 93.3144 63.1185C93.0845 63.2374 92.8635 63.3778 92.6483 63.5174C92.133 63.8579 91.6324 64.217 91.1709 64.6159C90.3841 65.2948 90.3588 66.5979 91.1709 67.2731C92.0474 68.003 93.2247 67.9616 94.1036 67.2731Z" fill="#F08428"/>
<path d="M99.1209 63.6481C99.3085 63.5742 99.4968 63.5018 99.6868 63.4287C99.9306 63.3341 100.187 63.2617 100.361 63.0652C100.62 62.7682 100.741 62.4373 100.57 62.0664C100.404 61.717 100.058 61.5338 99.6468 61.505C99.2962 61.4821 98.9832 61.6542 98.6725 61.7813C98.472 61.8625 98.2738 61.9438 98.0733 62.0251C97.5767 62.2275 97.4202 62.916 97.7015 63.3112C97.8433 63.5114 98.0561 63.6872 98.3219 63.7426C98.6114 63.8032 98.8494 63.7537 99.1209 63.6481Z" fill="#F08428"/>
<path d="M120.874 102.258C120.518 103.451 119.881 104.712 120.561 105.921C120.816 106.371 121.477 106.579 121.997 106.45C122.569 106.309 122.88 105.849 122.932 105.339C123.02 104.448 122.342 103.553 122.479 102.659C122.621 101.728 121.164 101.291 120.874 102.258Z" fill="#F08428"/>
<path d="M132.041 85.1823C131.979 85.5169 131.92 85.8464 131.824 86.1737C131.676 86.6805 131.626 87.318 132.126 87.6829C132.538 87.9814 132.953 88.0323 133.431 87.8336C134.009 87.5958 134.147 86.9789 134.139 86.4574C134.132 86.119 134.166 85.7858 134.193 85.4475C134.235 84.9555 133.744 84.5337 133.243 84.4716C132.751 84.4125 132.133 84.6947 132.041 85.1823Z" fill="#F08428"/>
<path d="M117.905 140.116C117.901 140.303 117.963 140.777 117.959 140.59C117.959 140.669 117.956 140.749 117.95 140.828C117.971 140.675 117.967 140.698 117.937 140.898C117.885 141.258 118.011 141.651 118.084 142.008C118.222 142.68 119.159 143.122 119.853 142.918C120.576 142.706 121.096 142.012 120.858 141.314C120.751 141.002 120.668 140.658 120.475 140.382C120.405 140.282 120.325 140.191 120.267 140.083C120.261 140.073 120.226 139.98 120.222 139.97C120.206 139.925 120.19 139.879 120.173 139.833C119.987 139.309 119.357 138.916 118.741 139.097C118.199 139.256 117.917 139.649 117.905 140.116Z" fill="#F08428"/>
<path d="M131.98 63.6119C132.066 65.3819 130.463 66.5602 129.402 67.8101C128.722 68.6102 129.866 69.9753 130.906 69.5801C132.208 69.0866 133.026 68.0258 133.546 66.8586C134.082 65.656 133.871 64.635 133.653 63.4072C133.498 62.5488 131.939 62.7512 131.98 63.6119Z" fill="#F08428"/>
<path d="M125.608 70.0589C125.588 70.0833 125.569 70.1084 125.546 70.1328C125.627 70.0382 125.708 69.9436 125.79 69.8469C125.703 69.9451 125.606 70.0323 125.498 70.1099C125.602 70.036 125.708 69.9621 125.813 69.889C125.688 69.9739 125.556 70.0441 125.412 70.0988C125.537 70.0515 125.663 70.0042 125.786 69.9569C125.755 69.968 125.723 69.9791 125.689 69.9887C125.301 70.1135 124.967 70.3101 124.754 70.641C124.559 70.9439 124.475 71.3923 124.596 71.7343C124.719 72.0771 124.953 72.4081 125.316 72.5817C125.669 72.7501 126.132 72.8557 126.523 72.7235C126.975 72.5706 127.288 72.4095 127.664 72.1392C127.917 71.9537 128.111 71.7233 128.294 71.481C128.514 71.1936 128.551 70.7208 128.451 70.3957C128.351 70.0685 128.073 69.7132 127.738 69.5521C127.376 69.38 126.938 69.2928 126.537 69.4103C126.414 69.4576 126.291 69.5048 126.166 69.5521C125.932 69.677 125.746 69.8469 125.608 70.0589Z" fill="#F08428"/>
<path d="M94.1829 51.2624C95.6464 49.4171 100.303 48.4013 102.692 51.5328C105.08 54.6651 103.071 58.9859 98.2986 58.9748C93.5298 58.963 91.2273 54.9901 94.1829 51.2624Z" fill="#E3591E"/>
<path d="M98.3009 58.9749C97.0186 58.972 95.9146 58.6826 95.0431 58.1885C93.4539 57.2876 96.1594 56.294 97.9853 56.2364C100.462 56.159 103.703 56.7597 101.614 58.0918C100.748 58.6436 99.6318 58.9781 98.3009 58.9749Z" fill="#CF511C"/>
<path d="M84.8968 45.1634C83.911 45.3621 82.9865 45.8083 82.3187 46.499C81.7716 47.0664 81.6567 47.989 82.3187 48.5409C82.8968 49.0218 84.0195 49.1725 84.5747 48.5409C84.7834 48.303 85.0239 48.1021 85.2702 47.8982C85.2995 47.8753 85.4977 47.7334 85.3411 47.8376C85.1805 47.9418 85.3949 47.811 85.4267 47.794C85.4936 47.7578 85.5621 47.7238 85.6314 47.6936C85.6958 47.6633 85.9526 47.5746 85.6607 47.6766C86.3595 47.4328 86.9212 46.7901 86.6644 46.075C86.4141 45.3754 85.6835 45.0068 84.8968 45.1634Z" fill="#FF824D"/>
<path d="M96.7943 50.6611C96.4054 50.831 96.0385 51.0903 95.7653 51.3947C95.686 51.4665 95.619 51.545 95.5639 51.6298C95.4479 51.8083 95.4146 52.0245 95.3805 52.2346C95.3617 52.6055 95.5851 52.9497 95.8982 53.1669C96.1868 53.3693 96.5056 53.4447 96.8668 53.4018C97.2843 53.3501 97.5933 53.1521 97.8248 52.8345C97.8583 52.7872 97.8958 52.7414 97.9333 52.6963C97.8648 52.7754 97.7979 52.8552 97.7286 52.9342C97.8379 52.8116 97.9586 52.7 98.0939 52.6018C98.0067 52.6623 97.921 52.7222 97.8354 52.7828C97.9104 52.7303 97.9879 52.6808 98.0694 52.6372C98.3426 52.4858 98.5635 52.2346 98.6491 51.9532C98.7331 51.6784 98.6956 51.3156 98.5219 51.0718C98.3491 50.8273 98.0898 50.6124 97.7669 50.5459C97.4204 50.4757 97.1155 50.523 96.7943 50.6611Z" fill="#FF824D"/>
</svg>
