<svg width="73" height="62" viewBox="0 0 73 62" fill="none" xmlns="http://www.w3.org/2000/svg">
<path d="M36.5 0C16.3738 0 0 13.9065 0 31C0 48.0935 16.3738 62 36.5 62C56.6262 62 73 48.0935 73 31C73 13.9065 56.6262 0 36.5 0ZM36.5 58.4532C18.6764 58.4532 4.17604 46.1376 4.17604 31C4.17604 15.8624 18.6764 3.54678 36.5 3.54678C54.3236 3.54678 68.824 15.8624 68.824 31C68.824 46.1376 54.3236 58.4532 36.5 58.4532Z" fill="#F08428"/>
<path d="M44.9539 14.1776H40.0044C35.9534 14.1776 32.6576 16.9768 32.6576 20.4174V25.1464H28.0465C26.8932 25.1464 25.9585 25.9403 25.9585 26.9198C25.9585 27.8993 26.8932 28.6932 28.0465 28.6932H32.6576V45.1134C32.6576 46.0929 33.5923 46.8868 34.7456 46.8868C35.8989 46.8868 36.8336 46.0929 36.8336 45.1134V28.6932H43.9677C45.121 28.6932 46.0557 27.8993 46.0557 26.9198C46.0557 25.9403 45.121 25.1464 43.9677 25.1464H36.8336V20.4174C36.8336 18.9325 38.256 17.7244 40.0044 17.7244H44.9537C46.107 17.7244 47.0417 16.9305 47.0417 15.951C47.0417 14.9715 46.107 14.1776 44.9539 14.1776Z" fill="#F08428"/>
</svg>
