<svg width="210" height="202" viewBox="0 0 210 202" fill="none" xmlns="http://www.w3.org/2000/svg">
<ellipse cx="105" cy="101" rx="105" ry="101" fill="#D9D9D9"/>
<path d="M150.198 106.237C150.688 105.442 151.844 105.442 152.335 106.237L152.382 106.314C152.554 106.592 152.843 106.777 153.168 106.815L153.509 106.854C154.333 106.95 154.627 107.998 153.972 108.508C153.691 108.727 153.56 109.087 153.635 109.435L153.643 109.475C153.811 110.261 153.026 110.912 152.285 110.6L151.765 110.381C151.446 110.247 151.086 110.247 150.767 110.381L150.248 110.6C149.507 110.911 148.722 110.261 148.891 109.475L148.899 109.435C148.974 109.087 148.843 108.727 148.562 108.508C147.907 107.998 148.201 106.95 149.025 106.854L149.365 106.815C149.689 106.777 149.979 106.592 150.15 106.314L150.198 106.237Z" fill="#E7E8E5"/>
<path d="M130.423 93.0645C128.656 93.1498 127.392 91.3783 128.048 89.7348C128.335 89.0162 128.249 88.2106 127.902 87.5189C126.873 85.4658 126.418 83.1947 126.683 80.8407C127.584 72.8725 136.403 66.9975 146.38 67.7193C156.356 68.4411 163.714 75.4869 162.814 83.4551C161.911 91.4233 153.094 97.2983 143.117 96.5764C139.394 96.3076 136.258 95.3154 133.606 93.6C132.992 93.2032 132.279 92.975 131.549 93.0102L130.423 93.0645Z" fill="#FAFAF9"/>
<path d="M126.646 93.2471C126.646 93.2471 126.786 93.2356 127.047 93.2191C127.318 93.2043 127.705 93.1813 128.209 93.1533C129.23 93.0974 130.727 93.0152 132.674 92.9084L132.677 92.9082C132.692 92.9072 132.707 92.912 132.719 92.9215C134.434 94.1876 137.051 95.5918 140.589 96.1903C141.466 96.34 142.394 96.4584 143.358 96.506C143.841 96.5208 144.332 96.5356 144.832 96.5504C145.331 96.5471 145.837 96.506 146.351 96.4847C148.401 96.3334 150.551 95.8911 152.615 95.0854C154.677 94.283 156.648 93.1155 158.295 91.611C159.94 90.1098 161.276 88.2731 162.02 86.2145C162.758 84.1608 162.947 81.9081 162.466 79.6867C162.384 79.1243 162.162 78.5834 161.985 78.0309C161.909 77.753 161.761 77.4899 161.64 77.2203C161.512 76.9539 161.393 76.6826 161.255 76.4162C160.637 75.3787 159.956 74.3411 159.031 73.4269C158.612 72.9451 158.094 72.5324 157.606 72.1016C157.372 71.8796 157.08 71.7037 156.819 71.5047C156.546 71.3157 156.291 71.1118 156.007 70.9358L155.141 70.4245L154.71 70.1712L154.251 69.9525L153.339 69.5152C153.03 69.3754 152.701 69.2685 152.387 69.1452C149.842 68.1882 147.079 67.7262 144.408 67.7722C141.738 67.8133 139.17 68.3346 136.925 69.2028C134.676 70.0693 132.748 71.2745 131.231 72.6475C129.709 74.0205 128.603 75.5579 127.876 77.0953C127.789 77.2893 127.703 77.4817 127.617 77.6724C127.526 77.8632 127.446 78.0539 127.395 78.2496C127.273 78.636 127.156 79.0175 127.039 79.3924C126.911 80.1586 126.735 80.8936 126.716 81.6138C126.57 84.4979 127.522 86.8919 128.558 88.5691L128.559 88.5706C128.565 88.5811 128.566 88.5938 128.562 88.6053C127.945 90.1049 127.473 91.2591 127.15 92.0467C126.99 92.4332 126.866 92.7308 126.78 92.9379C126.696 93.1402 126.646 93.2471 126.646 93.2471C126.646 93.2471 126.679 93.1501 126.753 92.9527C126.833 92.7472 126.944 92.4512 127.092 92.0665C127.402 91.2701 127.854 90.1062 128.441 88.5928C128.443 88.5888 128.449 88.5895 128.449 88.5938C128.45 88.5981 128.444 88.6003 128.442 88.5966C127.382 86.9168 126.406 84.5137 126.533 81.6089C126.548 80.8804 126.72 80.1372 126.848 79.3628C126.963 78.9829 127.08 78.5982 127.199 78.2052C127.251 78.0079 127.331 77.8139 127.421 77.6215C127.508 77.4291 127.594 77.2334 127.68 77.0378C128.408 75.479 129.522 73.9202 131.058 72.5258C132.587 71.1315 134.538 69.9049 136.816 69.0235C139.09 68.1389 141.695 67.6062 144.404 67.5618C147.114 67.5124 149.916 67.9794 152.502 68.9479C152.823 69.0745 153.156 69.183 153.468 69.3244L154.395 69.7667L154.86 69.9887L155.298 70.2469L156.178 70.7648C156.465 70.944 156.726 71.1512 157.002 71.3436C157.269 71.5442 157.563 71.7218 157.802 71.9487C158.297 72.3844 158.823 72.8037 159.249 73.2937C160.186 74.2211 160.879 75.2751 161.506 76.3291C161.646 76.5987 161.765 76.875 161.897 77.1463C162.02 77.4192 162.168 77.6856 162.246 77.9684C162.425 78.5291 162.649 79.0783 162.734 79.6489C163.221 81.9048 163.025 84.1904 162.271 86.2737C161.512 88.3619 160.153 90.2232 158.482 91.7426C156.809 93.2652 154.808 94.4425 152.716 95.2515C150.623 96.0621 148.444 96.5027 146.369 96.6507C145.849 96.6705 145.337 96.7116 144.832 96.7116C144.328 96.6951 143.831 96.6787 143.343 96.6622C142.369 96.6096 141.436 96.4879 140.55 96.3317C136.991 95.714 134.365 94.2878 132.654 93.0038C132.651 93.0011 132.654 92.9955 132.658 92.9968C132.663 92.9981 132.662 93.0046 132.657 93.0047C130.702 93.0848 129.197 93.1486 128.17 93.1912C127.672 93.2109 127.292 93.2257 127.024 93.2356C126.77 93.2454 126.646 93.2471 126.646 93.2471Z" fill="#17282F"/>
<path d="M136.188 83.1078C135.314 82.3432 135.393 80.9615 136.347 80.3004C137.002 79.8466 137.878 79.8822 138.494 80.3877L139.992 81.617C141.471 82.8311 143.57 82.9358 145.163 81.8749L152.638 76.8963C153.287 76.4638 154.151 76.5488 154.703 77.0994C155.442 77.8355 155.315 79.0652 154.441 79.6344L144.69 85.9855C142.921 87.138 140.601 86.973 139.012 85.5818L136.188 83.1078Z" fill="#F2575D"/>
<path d="M97.5021 79.7176C97.4836 79.7209 97.4137 79.5549 97.3027 79.2523C97.1897 78.9514 97.0396 78.5107 96.8669 77.9632C96.5195 76.8697 96.0878 75.3504 95.6992 73.6568C95.3107 71.9632 95.0372 70.4209 94.8769 69.2995C94.7967 68.7388 94.7412 68.285 94.7124 67.9709C94.6816 67.6552 94.6734 67.4809 94.6939 67.4793C94.7124 67.4776 94.7556 67.6503 94.8173 67.961C94.8851 68.3178 94.9694 68.7585 95.0681 69.2797C95.2778 70.3929 95.582 71.9287 95.9685 73.6174C96.3571 75.306 96.7559 76.8286 97.056 77.9287C97.1938 78.4433 97.3109 78.8791 97.4055 79.2326C97.4857 79.5417 97.5206 79.7127 97.5021 79.7176Z" fill="#17282F"/>
<path d="M109.739 78.7441C109.665 78.7458 109.469 74.0234 109.305 68.1994C109.14 62.3737 109.068 57.6497 109.142 57.6497C109.218 57.6464 109.414 62.3687 109.578 68.1944C109.743 74.0185 109.815 78.7425 109.739 78.7441Z" fill="#17282F"/>
<path d="M122.051 69.0431C122.123 69.0612 121.273 71.4223 120.153 74.3163C119.033 77.2102 118.066 79.5418 117.994 79.5237C117.923 79.5073 118.772 77.1461 119.892 74.2505C121.012 71.3566 121.979 69.025 122.051 69.0431Z" fill="#17282F"/>
<path d="M97.4713 79.6376C97.4615 79.6394 97.452 79.6342 97.4479 79.6251C97.4132 79.5476 97.3643 79.4216 97.3027 79.2523C97.1897 78.9514 97.0396 78.5107 96.8669 77.9632C96.5195 76.8697 96.0878 75.3504 95.6992 73.6568C95.3107 71.9632 95.0372 70.4209 94.8769 69.2995C94.7967 68.7388 94.7412 68.2849 94.7124 67.9709C94.6816 67.6552 94.6734 67.4809 94.6939 67.4792C94.7124 67.4792 94.7556 67.6503 94.8173 67.961C94.8851 68.3178 94.9694 68.7585 95.0681 69.2797C95.2778 70.3929 95.582 71.9287 95.9685 73.6173C96.3571 75.306 96.7559 76.8286 97.056 77.9287C97.1938 78.4433 97.3109 78.879 97.4055 79.2326C97.4384 79.3608 97.4651 79.4661 97.4816 79.545L97.4908 79.6111C97.4925 79.6236 97.4837 79.6354 97.4713 79.6376Z" fill="#111D23"/>
<path d="M109.759 78.5521C109.759 78.559 109.753 78.5633 109.746 78.5633C109.739 78.5633 109.734 78.5578 109.734 78.5509L109.113 58.4504C109.115 57.9341 109.124 57.6497 109.142 57.6497C109.218 57.6497 109.413 62.3687 109.578 68.1944C109.723 73.3303 109.797 77.6114 109.759 78.5521Z" fill="#0F191D"/>
<path d="M82.1384 102.427C80.3139 103.156 78.6764 104.243 77.6619 105.926C76.4241 107.979 74.9778 110.999 74.7757 113.669C74.4589 117.854 75.1718 140.652 75.2248 142.328C75.2271 142.4 75.231 142.461 75.2372 142.532C75.3212 143.505 75.746 144.417 76.5085 145.027C85.529 152.244 110.898 161.342 135.685 148.688C140.791 146.081 143.729 140.739 144.328 135.036L144.702 131.487C144.876 129.828 144.842 128.154 144.601 126.503L141.871 107.828C140.941 101.463 136.095 96.3772 129.783 95.1404L126.495 94.4963C125.003 94.2039 123.668 93.3789 122.739 92.175C121.301 90.311 118.939 89.4105 116.625 89.8438L97.8595 93.3572C96.1622 93.675 94.7025 94.7496 93.8948 96.2758C93.2668 97.4625 92.2378 98.3876 90.9911 98.8862L82.1384 102.427Z" fill="#33535F"/>
<path d="M115.453 66.5087C116.074 70.1697 120.816 70.0132 121.232 66.3233C121.617 62.918 121.261 59.3976 119.567 56.2587C119.31 55.7835 117.178 52.6067 116.537 52.684C116.078 52.7399 117.46 55.7276 117.246 56.0564C115.221 59.2003 114.853 62.895 115.435 66.399C115.441 66.4356 115.447 66.4721 115.453 66.5087Z" fill="#17282F"/>
<path d="M118.227 63.311C118.023 54.736 111.615 47.6837 100.905 48.0849L99.9158 48.1671C89.9822 49.0057 82.5156 55.8015 82.7602 63.7878C82.9884 71.2183 83.3605 79.4265 83.9423 83.3745C84.6731 88.333 88.7881 90.4342 91.9123 91.3199C93.9475 91.897 95.6873 93.5357 95.8742 95.6428C95.9704 96.727 96.4832 97.7317 97.3047 98.4456L97.6817 98.7732C99.3397 100.214 101.701 100.517 103.669 99.5421L110.455 96.1801C116.684 93.094 120.37 86.4923 119.73 79.5705L118.227 63.311Z" fill="#F9A78D"/>
<path d="M95.7991 93.8366C95.6643 92.8644 96.3962 91.9698 97.3668 91.824C97.9782 91.7322 98.7216 91.5983 99.5625 91.4037C102.855 90.6417 104.907 93.0762 101.748 94.2759C100.536 94.7358 99.1193 95.0744 97.4644 95.2146C96.6322 95.2851 95.9137 94.6639 95.7991 93.8366Z" fill="#F57F62"/>
<path d="M118.849 77.5061C118.047 72.7168 123.526 66.8483 125.213 71.402C125.361 71.8029 125.465 72.2656 125.514 72.7985C126.028 78.4121 118.876 77.6672 118.849 77.5061Z" fill="#F9A78D"/>
<path d="M121.038 75.5061C120.826 75.3854 120.906 75.3093 121.139 75.3783C121.349 75.4408 121.701 75.472 122.056 75.3405C122.778 75.079 123.315 74.1007 123.257 73.0878C123.228 72.5764 123.049 72.0963 122.786 71.7066C122.535 71.3087 122.176 71.0423 121.797 71.0094C121.421 70.9634 121.172 71.1574 121.1 71.3202C121.016 71.4969 120.912 71.5578 120.91 71.3618C120.91 71.3378 120.911 71.3118 120.915 71.284C120.934 71.1706 121.004 71.0341 121.16 70.9157C121.318 70.7973 121.561 70.7266 121.822 70.7332C122.367 70.7316 122.891 71.1015 123.179 71.529C123.5 71.9566 123.713 72.4942 123.746 73.0697C123.806 74.2026 123.179 75.3043 122.186 75.5986C121.701 75.7302 121.277 75.6348 121.053 75.5148C121.048 75.5119 121.043 75.509 121.038 75.5061Z" fill="#F57F62"/>
<path d="M87.0131 53.8093C86.7335 54.0782 86.2322 54.1056 86.3246 53.7288C86.5822 52.6774 89.0738 50.4635 91.2652 49.5287C95.3624 47.7792 101.733 46.5049 105.695 47.1872C110.466 48.0094 114.51 49.6734 117.137 52.9636C119.765 56.2538 120.969 60.182 121.146 64.0839C121.199 65.2743 121.146 66.5207 120.433 67.5665C119.551 68.8589 117.733 69.7385 117.953 71.447C118.034 72.0718 117.861 72.7147 117.361 73.1998C116.165 74.359 114.51 73.4119 113.704 72.4204C111.983 70.2992 111.601 67.6815 111.262 65.1674C111.021 63.3818 110.783 61.5566 111.276 59.8022C111.543 58.8485 112.025 57.9359 112.226 56.9723C112.43 56.0072 112.306 54.9302 111.504 54.1935C111.373 54.0735 111.161 53.9239 110.896 53.7611C108.795 52.4687 105.976 52.1957 103.54 53.0294C99.6754 54.3514 93.0578 56.3705 91.2076 55.3873C90.0161 54.7544 89.2199 54.2094 88.7039 53.8005C88.2213 53.4181 87.4569 53.3825 87.0131 53.8093Z" fill="#17282F"/>
<path d="M78.4857 113.26C78.774 110.146 72.9225 105.911 71.0444 108.412C68.9255 111.238 66.8279 123.641 66.7099 124.347C66.7061 124.369 66.7028 124.389 66.6991 124.412L65.775 130.128C65.4818 131.94 65.8026 133.602 66.9554 135.032C70.2624 139.132 76.276 137.129 76.7616 131.884L78.4857 113.26Z" fill="#33535F"/>
<mask id="mask0_67_2" style="mask-type:alpha" maskUnits="userSpaceOnUse" x="144" y="125" width="2" height="7">
<path d="M144.416 126.174C144.416 125.883 144.651 125.647 144.942 125.647C145.232 125.647 145.468 125.883 145.468 126.174V130.593C145.468 130.884 145.232 131.12 144.942 131.12C144.651 131.12 144.416 130.884 144.416 130.593V126.174Z" fill="black"/>
</mask>
<g mask="url(#mask0_67_2)">
<mask id="mask1_67_2" style="mask-type:alpha" maskUnits="userSpaceOnUse" x="144" y="125" width="1" height="7">
<path d="M144.751 131.024L144.757 130.952C144.755 130.976 144.753 131.001 144.751 131.024ZM144.956 125.995C144.933 126.23 144.569 126.287 144.535 126.054C144.513 125.902 144.665 125.782 144.805 125.843L144.833 125.855C144.911 125.889 144.964 125.91 144.956 125.995Z" fill="black"/>
</mask>
<g mask="url(#mask1_67_2)">
<path d="M144.483 130.783C144.483 130.916 144.591 131.024 144.724 131.024C144.857 131.024 144.964 130.916 144.964 130.783V125.944C144.964 125.811 144.857 125.703 144.724 125.703C144.591 125.703 144.483 125.811 144.483 125.944V130.783Z" fill="#A7A9A8"/>
</g>
</g>
<path d="M143.811 131.037C140.752 131.037 137.872 130.602 134.95 129.775C133.863 129.467 132.763 129.082 131.998 128.392C131.34 127.798 130.974 127.014 130.249 126.475C129.572 125.971 128.662 125.736 127.854 125.379C125.925 124.526 124.604 122.971 123.851 121.313C122.881 119.184 125.362 117.339 127.506 118.277L142.408 124.796C143.699 125.36 144.607 126.551 144.811 127.945C144.844 128.174 144.858 128.407 144.852 128.639C144.828 129.58 144.8 130.497 144.756 130.952C144.753 130.993 144.719 131.025 144.678 131.026C144.387 131.033 144.097 131.037 143.811 131.037Z" fill="#20353D"/>
<path d="M140.318 97.2045C140.318 97.2045 147.571 98.9195 149.697 101.392C151.82 103.862 155.587 113.442 156.36 115.218C157.133 116.993 156.456 121.114 155.007 124.074C153.56 127.035 151.045 129.584 146.702 129.97C142.358 130.356 135.495 128.349 133.952 127.035C131.955 125.336 133.987 122.482 136.534 121.865C136.843 121.79 137.15 121.713 137.457 121.632" fill="#33535F"/>
<path d="M137.363 121.65C137.424 121.635 137.427 121.646 137.368 121.665C137.296 121.685 137.206 121.711 137.095 121.744C136.85 121.81 136.488 121.907 136.009 122.022C135.062 122.248 133.657 122.556 131.827 122.825C131.81 122.828 131.798 122.807 131.81 122.794C131.82 122.782 131.839 122.786 131.843 122.801C132.005 123.448 132.237 124.155 132.576 124.894C132.749 125.269 132.946 125.656 133.203 126.032C133.46 126.407 133.76 126.787 134.175 127.091C134.591 127.392 135.105 127.639 135.641 127.864C136.178 128.096 136.753 128.296 137.35 128.492C138.542 128.877 139.833 129.207 141.202 129.467C142.571 129.72 144.027 129.908 145.532 129.913C145.908 129.926 146.284 129.885 146.664 129.87C147.038 129.821 147.423 129.793 147.795 129.709C148.547 129.572 149.288 129.347 149.974 129.031C151.362 128.415 152.54 127.46 153.432 126.333C154.337 125.21 154.998 123.934 155.486 122.602C155.864 121.58 156.144 120.544 156.324 119.514C156.507 118.487 156.598 117.461 156.512 116.463C156.464 115.959 156.347 115.489 156.135 115.022C155.94 114.55 155.747 114.083 155.554 113.621C155.169 112.699 154.791 111.796 154.423 110.913C153.677 109.154 152.939 107.49 152.201 105.947C151.448 104.413 150.747 102.97 149.869 101.766C149.44 101.159 148.852 100.684 148.231 100.299C147.62 99.903 146.987 99.589 146.385 99.3111C145.176 98.7603 144.076 98.3706 143.172 98.0664C142.265 97.7671 141.547 97.5566 141.06 97.4185C140.828 97.3528 140.643 97.3018 140.505 97.2623C140.38 97.2278 140.316 97.2081 140.318 97.2048C140.32 97.2015 140.386 97.213 140.513 97.2409C140.653 97.2755 140.84 97.3199 141.079 97.3774C141.572 97.5007 142.296 97.6981 143.211 97.9874C144.125 98.2801 145.236 98.66 146.461 99.2042C147.071 99.4788 147.715 99.7912 148.34 100.191C148.971 100.574 149.59 101.067 150.034 101.684C150.938 102.907 151.648 104.344 152.412 105.882C153.163 107.426 153.909 109.09 154.661 110.849C155.033 111.73 155.414 112.633 155.802 113.555C155.996 114.016 156.191 114.483 156.386 114.953C156.602 115.42 156.734 115.938 156.781 116.446C156.869 117.467 156.779 118.506 156.594 119.546C156.413 120.586 156.131 121.629 155.749 122.665C155.255 124.011 154.583 125.306 153.66 126.45C152.749 127.598 151.539 128.583 150.104 129.217C149.394 129.541 148.63 129.771 147.855 129.911C147.472 129.997 147.078 130.025 146.691 130.074C146.303 130.089 145.914 130.13 145.532 130.115C143.996 130.107 142.528 129.913 141.147 129.653C139.767 129.387 138.468 129.048 137.265 128.653C136.667 128.454 136.085 128.25 135.545 128.012C135 127.779 134.48 127.529 134.04 127.206C133.602 126.881 133.3 126.486 133.041 126.101C132.782 125.715 132.584 125.322 132.414 124.94C132.074 124.178 131.848 123.452 131.692 122.785C131.685 122.755 131.706 122.725 131.736 122.721L131.752 122.719C133.604 122.466 135.027 122.173 135.989 121.963C136.457 121.856 136.821 121.774 137.082 121.714C137.195 121.688 137.288 121.667 137.362 121.65C137.362 121.65 137.363 121.65 137.363 121.65Z" fill="#17282F"/>
<path d="M150.763 118.531C150.71 118.541 150.546 117.817 149.935 116.748C149.341 115.681 148.272 114.27 146.664 113.032C145.862 112.409 144.972 111.936 144.119 111.584C143.901 111.505 143.687 111.429 143.478 111.355C143.272 111.278 143.052 111.245 142.851 111.191C142.446 111.072 142.047 111.044 141.687 110.998C141.599 110.988 141.51 110.977 141.424 110.967C141.338 110.967 141.253 110.967 141.173 110.967C141.011 110.967 140.857 110.967 140.709 110.967C140.417 110.952 140.172 110.995 139.969 111.018C139.564 111.066 139.335 111.085 139.329 111.071C139.325 111.056 139.545 111.008 139.95 110.934C140.154 110.898 140.402 110.842 140.7 110.845C140.85 110.839 141.009 110.834 141.175 110.827C141.26 110.826 141.346 110.822 141.436 110.819C141.525 110.827 141.615 110.836 141.708 110.845C142.078 110.882 142.491 110.903 142.91 111.016C143.12 111.067 143.35 111.099 143.564 111.174C143.782 111.248 144.002 111.324 144.23 111.401C145.114 111.755 146.033 112.236 146.851 112.873C148.496 114.139 149.557 115.589 150.114 116.686C150.258 116.96 150.381 117.21 150.459 117.439C150.546 117.664 150.628 117.857 150.661 118.023C150.745 118.348 150.782 118.527 150.763 118.531Z" fill="#17282F"/>
<path d="M154.723 113.327C154.661 113.345 154.466 112.58 153.629 111.559C152.809 110.556 151.242 109.295 149.006 108.761C146.779 108.22 144.619 108.387 143.108 108.502C142.39 108.572 141.786 108.629 141.305 108.675C140.865 108.718 140.852 108.661 141.288 108.591C141.71 108.524 142.322 108.433 143.085 108.348C144.596 108.193 146.788 107.994 149.088 108.552C150.227 108.83 151.228 109.297 152.011 109.829C152.805 110.359 153.38 110.951 153.792 111.477C154.201 112.005 154.435 112.475 154.565 112.804C154.698 113.134 154.735 113.324 154.723 113.327Z" fill="#17282F"/>
<path d="M148.03 106.776C148.86 106.932 148.836 107.04 147.998 106.929C147.222 106.827 146.146 106.726 144.942 106.769C143.733 106.802 142.668 106.971 141.904 107.122C141.084 107.284 141.052 107.177 141.862 106.97C142.623 106.776 143.71 106.59 144.932 106.551C146.151 106.513 147.255 106.63 148.03 106.776Z" fill="#17282F"/>
<path d="M137.516 98.6516C137.559 98.6582 137.456 99.2436 137.37 100.196C137.286 101.144 137.247 102.463 137.409 103.91C137.553 105.249 137.85 106.455 138.12 107.351C138.137 107.408 138.103 107.467 138.046 107.482C137.996 107.495 137.945 107.47 137.924 107.423C137.727 106.974 137.571 106.608 137.465 106.347C137.354 106.072 137.302 105.918 137.321 105.911C137.339 105.906 137.426 106.051 137.569 106.316C137.701 106.563 137.881 106.914 138.097 107.346C138.123 107.398 138.094 107.461 138.039 107.475C137.993 107.487 137.946 107.462 137.93 107.418C137.613 106.52 137.281 105.295 137.136 103.93C136.971 102.468 137.043 101.134 137.177 100.181C137.245 99.704 137.321 99.3208 137.386 99.0561C137.452 98.793 137.497 98.65 137.516 98.6516Z" fill="#17282F"/>
<path d="M128.784 88.6158C128.002 87.7685 126.648 87.7843 125.572 88.1991C124.505 88.6104 123.281 89.5087 123.025 91.471C122.663 94.2482 123.025 96.9464 123.025 98.1616C123.025 98.3329 123.012 98.5655 122.989 98.839C122.729 101.964 119.768 104.581 119.83 107.716C119.838 108.101 119.904 108.438 120.007 108.734C120.467 110.047 121.352 110.96 121.546 112.338C121.693 113.382 122.498 115.261 122.387 116.309C122.329 116.859 122.387 117.457 122.723 117.964C123.47 119.093 124.455 120.992 125.578 121.749C125.824 121.915 126.139 122.066 126.538 122.191C127.847 122.6 129.676 122.594 130.263 122.58C130.39 122.577 130.516 122.573 130.643 122.571L132.294 122.546C132.931 122.536 133.562 122.665 134.145 122.922C135.168 123.374 136.336 123.438 137.332 122.928C138.546 122.307 140.02 121.317 140.084 120.149C140.154 118.829 139.951 117.512 139.543 116.255C139.242 115.328 138.94 114.305 138.887 113.804C138.778 112.761 139.866 110.242 139.214 109.112C138.562 107.983 136.281 107.319 136.496 105.738C136.714 104.158 136.281 103.29 135.302 102.42C135.053 102.2 134.589 101.923 134.035 101.633C131.522 100.318 128.892 98.3926 128.892 95.5554C128.892 94.1309 130.352 90.3127 128.784 88.6158Z" fill="#F9A78D"/>
<path d="M129.798 100.472C129.817 100.5 129.418 100.704 128.756 101.013C128.094 101.324 127.171 101.738 126.143 102.185C125.115 102.631 124.178 103.024 123.491 103.3C122.807 103.575 122.373 103.731 122.354 103.705C122.338 103.678 122.737 103.473 123.399 103.164C124.061 102.854 124.982 102.438 126.01 101.993C127.038 101.547 127.975 101.154 128.662 100.878C129.346 100.603 129.78 100.447 129.798 100.472Z" fill="#F57F62"/>
<path d="M132.27 107.276C132.282 107.289 132.165 107.373 131.943 107.511C131.721 107.654 131.386 107.843 130.962 108.064C130.113 108.504 128.878 109.044 127.433 109.488C125.987 109.928 124.616 110.186 123.617 110.311C123.118 110.375 122.71 110.413 122.429 110.425C122.145 110.44 121.989 110.441 121.987 110.426C121.983 110.39 122.599 110.323 123.582 110.16C124.565 109.997 125.907 109.718 127.336 109.282C128.763 108.845 129.994 108.333 130.862 107.93C131.729 107.528 132.245 107.248 132.27 107.276Z" fill="#F57F62"/>
<path d="M135.502 105.114C135.571 105.132 135.43 105.518 134.983 105.84C134.539 106.166 134.046 106.242 134.03 106.186C134.003 106.127 134.406 105.97 134.798 105.679C135.197 105.393 135.432 105.086 135.502 105.114Z" fill="#F57F62"/>
<path d="M133.951 113.236C133.964 113.263 133.37 113.455 132.377 113.698C131.386 113.94 129.994 114.22 128.432 114.422C126.867 114.623 125.434 114.706 124.398 114.724C123.362 114.744 122.723 114.71 122.723 114.682C122.723 114.649 123.36 114.627 124.39 114.57C125.418 114.512 126.834 114.404 128.386 114.205C129.938 114.004 131.326 113.751 132.325 113.549C133.324 113.347 133.939 113.205 133.951 113.236Z" fill="#F57F62"/>
<path d="M137.391 112.737C137.354 112.719 137.518 112.488 137.68 112.092C137.843 111.697 137.978 111.122 137.886 110.497C137.791 109.869 137.489 109.336 137.216 108.984C136.942 108.629 136.714 108.437 136.745 108.412C136.766 108.392 137.047 108.549 137.376 108.897C137.703 109.241 138.057 109.8 138.157 110.471C138.258 111.14 138.079 111.75 137.861 112.146C137.643 112.548 137.417 112.751 137.391 112.737Z" fill="#F57F62"/>
<path d="M134.147 119.33C134.155 119.356 133.647 119.471 132.808 119.583C131.972 119.695 130.8 119.792 129.5 119.789C128.201 119.785 127.031 119.683 126.195 119.568C125.356 119.452 124.85 119.336 124.858 119.309C124.867 119.276 125.383 119.338 126.221 119.414C127.058 119.489 128.218 119.567 129.503 119.57C130.785 119.572 131.945 119.501 132.784 119.429C133.62 119.358 134.138 119.297 134.147 119.33Z" fill="#F57F62"/>
<path d="M127.465 95.6064C127.479 95.6294 127.294 95.7412 126.943 95.8415C126.593 95.9435 126.071 96.0142 125.502 95.9615C124.93 95.9056 124.443 95.7396 124.133 95.5751C123.82 95.4107 123.674 95.266 123.695 95.2463C123.742 95.192 124.46 95.6491 125.533 95.7429C126.604 95.8547 127.434 95.5439 127.465 95.6064Z" fill="#F57F62"/>
<path d="M138.172 112.991C138.188 112.99 138.219 113.103 138.234 113.315C138.242 113.527 138.207 113.835 138.102 114.203C138.001 114.571 137.827 114.997 137.662 115.468C137.504 115.934 137.35 116.464 137.465 117C137.555 117.533 138.053 117.965 138.133 118.506C138.221 119.037 137.958 119.488 137.718 119.808C137.469 120.132 137.216 120.363 137.039 120.515C136.86 120.67 136.751 120.746 136.737 120.736C136.694 120.711 137.099 120.367 137.551 119.731C137.761 119.414 137.975 118.993 137.882 118.534C137.818 118.077 137.315 117.646 137.195 117.038C137.068 116.441 137.247 115.884 137.42 115.412C137.603 114.936 137.792 114.52 137.915 114.165C138.178 113.457 138.127 112.993 138.172 112.991Z" fill="#F57F62"/>
<path d="M139.588 115.635C139.605 115.632 139.671 115.772 139.765 116.03C139.86 116.29 139.985 116.666 140.104 117.14C140.22 117.613 140.337 118.185 140.355 118.83C140.372 119.468 140.292 120.203 139.88 120.892C139.455 121.569 138.846 122.102 138.262 122.54C137.67 122.974 137.089 123.317 136.591 123.589C136.092 123.86 135.672 124.062 135.378 124.194C135.084 124.325 134.916 124.389 134.907 124.378C134.883 124.347 135.514 124.031 136.478 123.464C136.957 123.178 137.518 122.826 138.09 122.393C138.651 121.957 139.235 121.436 139.634 120.797C140.018 120.154 140.104 119.455 140.102 118.832C140.098 118.205 140.004 117.64 139.913 117.168C139.72 116.222 139.543 115.643 139.588 115.635Z" fill="#17282F"/>
<path d="M99.8768 101.624C99.8645 101.636 99.6486 101.506 99.2683 101.259C98.851 100.985 98.3144 100.629 97.673 100.204C97.3338 99.9767 96.9699 99.73 96.5814 99.4669C96.3861 99.3354 96.1867 99.2006 95.9605 99.1101C95.7344 99.0213 95.4815 98.9983 95.2554 99.0904C94.8011 99.2811 94.4968 99.7481 94.1103 100.135C93.7341 100.539 93.3476 100.957 92.9509 101.384C92.3136 102.065 91.703 102.719 91.1376 103.323L91.1104 103.352C91.0255 103.442 90.8759 103.361 90.9053 103.241C91.2754 101.718 91.7914 100.447 92.2149 99.5689C92.4266 99.1299 92.6137 98.7862 92.7494 98.5527C92.8871 98.3209 92.9694 98.1992 92.9837 98.2041C92.9981 98.2091 92.9406 98.3406 92.8296 98.5807C92.7185 98.8207 92.5582 99.1693 92.367 99.6133C91.9973 100.48 91.5313 101.71 91.1841 103.178C91.1713 103.232 91.1143 103.264 91.0617 103.245C90.9985 103.223 90.9788 103.143 91.0244 103.094C91.5587 102.518 92.1338 101.898 92.7309 101.253C93.1297 100.825 93.5182 100.409 93.8945 100.006C94.0836 99.804 94.2686 99.6067 94.4516 99.4127C94.6387 99.2203 94.8483 99.023 95.1464 98.9095C95.4445 98.7862 95.8105 98.8273 96.0674 98.9375C96.3306 99.046 96.5361 99.194 96.7294 99.3288C97.1097 99.5985 97.4695 99.8533 97.8005 100.087C98.4192 100.534 98.9352 100.906 99.3382 101.195C99.6959 101.46 99.8891 101.613 99.8768 101.624Z" fill="#17282F"/>
<path d="M121.871 98.1712C122.02 98.0929 122.036 98.1193 121.894 98.2109C121.727 98.3145 121.522 98.4427 121.271 98.5989C120.693 98.9475 119.91 99.4194 118.954 99.9949C116.948 101.174 114.23 102.775 111.21 104.553L111.201 104.558C111.139 104.595 111.059 104.58 111.015 104.523C110.953 104.448 110.887 104.365 110.821 104.283C109.414 102.505 108.095 100.84 106.978 99.4291C106.964 99.4121 106.98 99.3879 107.001 99.3933C107.023 99.3989 107.024 99.4301 107.002 99.437C105.18 100.021 103.746 100.658 102.765 101.133C102.267 101.374 101.885 101.573 101.622 101.71C101.361 101.845 101.219 101.915 101.211 101.907C101.204 101.901 101.332 101.815 101.581 101.662C101.832 101.513 102.204 101.297 102.693 101.042C103.671 100.529 105.125 99.8535 106.992 99.2402L107 99.2375C107.048 99.2213 107.101 99.2368 107.133 99.2764C108.27 100.694 109.615 102.371 111.054 104.165C111.099 104.221 111.144 104.278 111.187 104.332C111.208 104.358 111.186 104.396 111.153 104.391C111.119 104.386 111.11 104.34 111.14 104.323C114.141 102.588 116.842 101.026 118.841 99.87C119.818 99.3175 120.619 98.8653 121.209 98.5315C121.472 98.3885 121.686 98.2717 121.861 98.1764C121.864 98.1746 121.868 98.1729 121.871 98.1712Z" fill="#17282F"/>
<path d="M74.8682 114.805C74.8764 114.805 74.8867 114.907 74.8949 115.101C74.9032 115.318 74.9134 115.602 74.9258 115.954C74.9422 116.719 74.9669 117.783 74.9977 119.087C75.0615 121.732 75.193 125.386 75.3637 129.421C75.5363 133.456 75.6371 137.113 75.6515 139.76C75.6556 141.084 75.6535 142.154 75.6371 142.894C75.6268 143.248 75.6206 143.531 75.6145 143.746C75.6062 143.942 75.596 144.044 75.5877 144.044C75.5775 144.044 75.5692 143.942 75.559 143.746C75.5507 143.531 75.5425 143.248 75.5302 142.894C75.5117 142.13 75.487 141.066 75.4562 139.762C75.3945 137.116 75.2609 133.464 75.0902 129.428C74.9196 125.392 74.8168 121.736 74.8045 119.088C74.7983 117.765 74.8024 116.694 74.8189 115.954C74.8271 115.602 74.8353 115.32 74.8415 115.103C74.8497 114.907 74.8579 114.805 74.8682 114.805Z" fill="#17282F"/>
<path d="M100.049 152.827C100.045 152.827 100.037 152.786 100.023 152.706C100.01 152.614 99.9939 152.495 99.9733 152.349C99.9322 152.018 99.8767 151.558 99.8047 150.973C99.6588 149.777 99.4902 148.043 99.3216 145.9C99.1489 143.756 99.0091 141.201 98.9187 138.361C98.8406 135.521 98.8221 132.397 98.9064 129.12C99.0009 125.842 99.1901 122.722 99.4203 119.888C99.6649 117.053 99.9445 114.504 100.232 112.368C100.518 110.232 100.779 108.508 100.991 107.317C101.094 106.735 101.176 106.276 101.234 105.947C101.262 105.803 101.285 105.684 101.303 105.592C101.322 105.512 101.341 105.513 101.332 105.595C101.32 105.689 101.305 105.806 101.289 105.954C101.242 106.284 101.178 106.743 101.096 107.329C100.919 108.521 100.685 110.247 100.426 112.383C100.162 114.521 99.9034 117.068 99.6732 119.901C99.4552 122.732 99.2743 125.85 99.1798 129.125C99.0955 132.399 99.1078 135.518 99.1716 138.356C99.2476 141.193 99.3669 143.748 99.5149 145.89C99.6588 148.034 99.7965 149.767 99.9096 150.966C99.961 151.551 100 152.014 100.027 152.346C100.037 152.492 100.045 152.61 100.051 152.704C100.056 152.786 100.056 152.827 100.049 152.827Z" fill="#17282F"/>
<path d="M83.713 120.886C85.2529 128.356 82.209 135.992 76.0784 140.53L73.7511 142.252C71.4435 143.96 68.4414 145.953 65.996 144.449C65.6476 144.235 65.3547 143.945 65.1595 143.555C64.0875 141.417 58.8273 123.665 58.4656 123.229C58.2038 122.913 57.7427 123.023 57.3526 122.85C57.0204 122.703 56.8482 122.343 56.6881 122.016C56.162 120.944 55.2056 118.185 57.2524 115.065C59.8843 111.054 67.4886 108.269 70.8294 107.286C74.1709 106.304 78.7452 106.763 80.0986 107.241C80.2531 107.295 80.4505 107.673 80.6782 108.301C81.4777 110.502 82.6581 115.768 83.713 120.886Z" fill="#966626"/>
<path d="M58.4951 123.228C58.477 123.228 58.4598 123.22 58.4475 123.206C58.0956 122.822 57.4183 123.127 57.0078 122.571C56.9699 122.519 56.9369 122.465 56.9036 122.411C56.7062 122.087 56.0001 120.806 56.001 119.037C56.0017 117.878 56.3054 116.51 57.2533 115.065C59.8851 111.053 67.4895 108.268 70.8303 107.286C72.2792 106.86 73.9594 106.705 75.5081 106.705C76.7555 106.705 77.9178 106.805 78.806 106.945C78.6641 106.942 78.5211 106.94 78.3768 106.94C77.5088 106.94 76.5867 107.002 75.6127 107.135C74.387 107.303 73.1926 107.539 72.0446 107.837C66.2435 109.336 61.6253 112.368 60.1156 115.738C59.4318 117.263 59.3992 118.548 59.6232 119.556C60.0244 121.361 60.3447 123.228 58.4951 123.228Z" fill="#7C4C19"/>
<path d="M87.2024 141.215C85.9365 141.683 84.1877 142.281 82.2505 142.857C76.5627 144.55 69.252 146.055 67.7863 143.522C67.3703 142.803 66.8381 141.494 66.255 139.864C65.1347 136.729 63.8278 132.405 62.8037 128.799C61.5885 124.52 58.2955 119.797 60.115 115.738C61.6246 112.368 66.2428 109.336 72.0439 107.837C73.1919 107.539 74.3863 107.303 75.6121 107.135C81.9781 106.266 86.0963 108.462 87.7116 110.785C87.9794 111.17 88.1782 111.559 88.3079 111.938C89.2149 114.601 87.9686 116.056 88.3337 117.403C88.6995 118.75 93.2992 133.714 93.3634 135.36C93.4269 137.007 92.1851 139.373 87.2024 141.215Z" fill="#F08428"/>
<path d="M75.8084 125.582C75.8621 126.289 76.4968 126.929 77.2814 126.995C78.1002 127.063 78.857 126.604 79.0749 125.878C79.1946 125.479 79.1189 125.061 78.8999 124.704C78.8294 124.589 78.6331 124.579 78.526 124.65C78.3974 124.735 78.3956 124.875 78.4671 124.991C78.7213 125.407 78.5982 126 78.1707 126.294C77.7313 126.596 77.1287 126.589 76.7154 126.246C76.4933 126.062 76.3618 125.803 76.3413 125.533C76.3172 125.219 75.7843 125.268 75.8084 125.582Z" fill="#824E2D"/>
<path d="M78.7273 120.299C79.1461 121.375 80.1316 123.267 81.6992 123.029C83.1439 122.808 83.7301 120.736 83.2534 119.653C83.1171 119.344 82.61 119.37 82.594 119.735C82.5696 120.278 82.6198 120.768 82.4412 121.301C82.3073 121.702 82.044 122.223 81.5387 122.312C80.9912 122.409 80.503 121.913 80.1878 121.575C79.7923 121.152 79.4844 120.681 79.2542 120.167C79.1245 119.877 78.6077 119.991 78.7273 120.299Z" fill="#824E2D"/>
<path d="M72.3346 122.277C72.4845 122.793 72.5034 123.327 72.3562 123.846C72.2223 124.317 71.9471 124.932 71.4572 125.185C70.3475 125.757 69.3617 123.801 69.1074 123.113C68.9673 122.734 68.3075 122.895 68.4476 123.279C68.8379 124.35 69.9939 126.383 71.5838 125.805C72.2418 125.565 72.647 124.901 72.8559 124.317C73.106 123.614 73.0843 122.85 72.8308 122.152C72.7272 121.867 72.2481 121.982 72.3346 122.277Z" fill="#824E2D"/>
<path d="M66.944 119.432C66.9527 119.402 66.9635 119.374 66.9761 119.347C67.2966 118.661 68.1349 117.776 68.9534 117.597C69.6372 117.446 70.2775 117.967 69.8541 118.518C69.3007 119.239 68.4822 120.044 67.442 120.047C67.3279 120.047 67.2083 120.037 67.111 119.982C66.9189 119.874 66.8823 119.635 66.944 119.432Z" fill="#824E2D"/>
<path d="M82.1958 115.647C81.627 115.107 79.905 114.921 79.3694 115.066C78.8731 115.202 78.4651 115.759 78.8944 116.162C79.663 116.886 81.1057 116.804 82.0379 116.41C82.2234 116.331 82.3939 116.171 82.3779 115.986C82.3671 115.86 82.3018 115.747 82.1958 115.647Z" fill="#824E2D"/>
<path d="M81.0654 143.2C81.4661 143.087 81.8626 142.973 82.2501 142.857C82.3993 142.813 82.5472 142.769 82.6936 142.724C82.1653 142.884 81.6206 143.044 81.0654 143.2ZM85.3747 141.862C86.054 141.631 86.6709 141.411 87.202 141.215C89.3564 140.418 90.8113 139.524 91.7641 138.632C90.8113 139.524 89.3564 140.418 87.202 141.215C86.6709 141.411 86.055 141.631 85.3747 141.862Z" fill="#F08428"/>
<path d="M88.3077 111.938C88.1779 111.559 87.9792 111.17 87.7113 110.785C86.3845 108.877 83.3692 107.054 78.8057 106.946C78.8054 106.946 78.8052 106.946 78.8052 106.945C78.8052 106.945 78.8054 106.945 78.8057 106.945C84.2905 107.075 87.5398 109.682 88.3077 111.938Z" fill="#F08428"/>
<path d="M68.4093 144.175C68.146 143.996 67.9361 143.781 67.7861 143.522C67.3701 142.803 66.838 141.494 66.2549 139.864C66.838 141.494 67.3701 142.803 67.7861 143.522C67.9361 143.781 68.146 143.996 68.4093 144.175Z" fill="#956222"/>
<path d="M75.6118 107.135C76.5858 107.002 77.5079 106.941 78.3758 106.941C78.52 106.941 78.6629 106.942 78.8046 106.945C78.8049 106.945 78.8051 106.945 78.8051 106.945C78.8051 106.946 78.8049 106.946 78.8046 106.946C78.6629 106.942 78.52 106.941 78.3748 106.941C77.5079 106.941 76.5858 107.002 75.6118 107.135Z" fill="#7C4916"/>
<path d="M71.6365 144.872C70.275 144.872 69.1483 144.67 68.4208 144.183C68.4132 144.178 68.4054 144.172 68.3977 144.167C68.1399 143.99 67.9339 143.777 67.7861 143.522C67.1511 142.424 68.7189 140.971 69.9706 141.175C70.418 141.248 70.8686 141.303 71.3142 141.344C72.0382 141.412 72.774 141.45 73.5112 141.45C76.1546 141.45 78.8025 140.952 80.8757 139.504C84.3919 137.048 85.316 132.612 85.5873 128.578C85.7338 126.4 85.7652 124.216 85.6822 122.036C85.5598 118.826 85.1305 115.473 83.1459 112.822C81.4005 110.49 78.6666 109.035 75.644 108.328C75.0297 108.185 74.9869 107.221 75.612 107.135C76.5859 107.002 77.508 106.941 78.3749 106.941C78.5203 106.941 78.6633 106.942 78.8053 106.946C83.3691 107.054 86.3845 108.877 87.7114 110.785C87.9792 111.17 88.178 111.559 88.3077 111.938C88.5613 112.682 88.6467 113.331 88.646 113.91C88.645 115.126 88.2648 116.032 88.2648 116.85C88.2648 117.038 88.2844 117.221 88.3335 117.403C88.6994 118.75 93.2991 133.714 93.3633 135.36C93.365 135.399 93.366 135.438 93.366 135.477C93.366 136.391 92.9633 137.51 91.7643 138.632C90.8116 139.524 89.3567 140.418 87.2023 141.215C86.6712 141.411 86.0543 141.631 85.3749 141.862C84.56 142.139 83.6536 142.433 82.6939 142.724C82.5475 142.769 82.3996 142.813 82.2503 142.857C81.8629 142.973 81.4664 143.087 81.0657 143.2C77.8473 144.103 74.2952 144.872 71.6365 144.872Z" fill="#F08428"/>
<path d="M68.0073 133.53C68.1778 134.22 68.7553 134.688 69.2962 134.576C69.8364 134.464 70.1363 133.815 69.9651 133.126C69.7945 132.437 69.217 131.969 68.6769 132.081C68.1356 132.193 67.8357 132.842 68.0073 133.53Z" fill="#F08428"/>
<path d="M72.1168 109.993C72.2322 110.459 72.7382 110.75 73.248 110.644C73.7568 110.539 74.0766 110.077 73.9612 109.612C73.8461 109.148 73.339 108.856 72.8303 108.961C72.3204 109.067 72.0017 109.529 72.1168 109.993Z" fill="#F08428"/>
<path d="M70.5743 134.607C70.6842 135.051 71.042 135.355 71.3732 135.286C71.7045 135.218 71.8838 134.802 71.7739 134.359C71.6634 133.915 71.3063 133.611 70.975 133.68C70.6437 133.748 70.4645 134.163 70.5743 134.607Z" fill="#F08428"/>
<path d="M71.1042 111.506C71.2008 111.895 71.5632 112.15 71.9133 112.078C72.2641 112.005 72.4702 111.632 72.3739 111.244C72.2773 110.855 71.915 110.599 71.5642 110.672C71.2141 110.744 71.008 111.117 71.1042 111.506Z" fill="#F08428"/>
<path d="M69.6772 136.481C69.7556 136.794 70.0085 137.009 70.2421 136.961C70.4772 136.912 70.6037 136.619 70.5253 136.305C70.4475 135.992 70.195 135.777 69.961 135.826C69.7263 135.874 69.5994 136.167 69.6772 136.481Z" fill="#F08428"/>
<path d="M74.0994 111.306C74.1681 111.585 74.4279 111.768 74.6779 111.716C74.9287 111.664 75.0762 111.397 75.0075 111.118C74.9377 110.84 74.679 110.656 74.4279 110.709C74.1779 110.761 74.0307 111.028 74.0994 111.306Z" fill="#F08428"/>
<path d="M69.7841 112.082C69.8385 112.299 70.0404 112.443 70.235 112.402C70.4307 112.362 70.5447 112.153 70.4913 111.936C70.4369 111.719 70.235 111.575 70.0404 111.615C69.8448 111.656 69.7308 111.864 69.7841 112.082Z" fill="#F08428"/>
<path d="M72.3837 112.865C72.4615 113.179 72.715 113.394 72.9487 113.346C73.1827 113.297 73.3096 113.004 73.2318 112.69C73.1541 112.376 72.9005 112.161 72.6665 112.209C72.4329 112.258 72.306 112.551 72.3837 112.865Z" fill="#F08428"/>
<path d="M68.3592 127.454C69.3984 126.743 70.9642 126.29 72.214 126.7C73.3212 127.063 72.864 127.935 72.198 128.479C71.368 129.155 67.5372 130.118 67.7646 128.157C67.7925 127.912 67.9986 127.719 68.2075 127.564C68.2567 127.526 68.3076 127.49 68.3592 127.454Z" fill="#EB8D62"/>
<path d="M82.2458 123.6C83.2215 122.818 84.7437 122.256 86.025 122.578C87.1594 122.862 86.7775 123.764 86.1589 124.352C85.3882 125.084 81.6495 126.314 81.7112 124.342C81.7192 124.097 81.9086 123.889 82.1032 123.72C82.1485 123.68 82.1966 123.64 82.2458 123.6Z" fill="#EB8D62"/>
<path d="M87.2021 141.215C85.9384 141.682 84.1935 142.279 82.2604 142.854C82.2538 142.856 82.2467 142.856 82.2405 142.853C82.2169 142.842 82.22 142.807 82.2453 142.8C82.9937 142.606 89.1019 140.934 91.0266 137.527C93.0774 133.895 90.7071 128.446 89.2484 123.549C87.7897 118.654 87.3886 116.106 87.8172 114.967C88.0571 114.329 88.181 113.214 88.0146 112.05C87.9853 111.845 88.2406 111.742 88.3075 111.938C89.2146 114.601 87.9682 116.056 88.3333 117.403C88.6992 118.75 93.2989 133.714 93.363 135.36C93.4265 137.007 92.1847 139.373 87.2021 141.215Z" fill="#F08428"/>
</svg>
