<svg width="210" height="202" viewBox="0 0 210 202" fill="none" xmlns="http://www.w3.org/2000/svg">
<ellipse cx="105" cy="101" rx="105" ry="101" fill="#D9D9D9"/>
<mask id="mask0_14_1597" style="mask-type:alpha" maskUnits="userSpaceOnUse" x="32" y="154" width="146" height="5">
<path d="M177.617 156.229C177.617 155.087 176.69 154.16 175.548 154.16H34.4519C33.3093 154.16 32.383 155.087 32.383 156.229C32.383 157.372 33.3093 158.298 34.4519 158.298H175.548C176.69 158.298 177.617 157.372 177.617 156.229Z" fill="black"/>
</mask>
<g mask="url(#mask0_14_1597)">
<path d="M105.16 158.298C145.176 158.298 177.617 157.397 177.617 156.285C177.617 155.979 175.163 155.689 170.773 155.43C168.053 155.269 165.352 155.883 162.645 156.184C162.036 156.252 161.417 156.287 160.789 156.287C159.779 156.287 158.79 156.197 157.832 156.024C155.163 155.543 152.526 154.759 149.814 154.7C137.508 154.431 122.006 154.271 105.16 154.271C97.1107 154.271 89.3666 154.308 82.1321 154.375C78.9743 154.405 75.9098 155.41 72.8069 155.997C71.8057 156.186 70.7707 156.285 69.7114 156.285C68.83 156.285 67.9651 156.217 67.1225 156.084C64.0026 155.594 60.9057 154.686 57.7485 154.762C42.4078 155.132 32.7008 155.676 32.7008 156.285C32.7008 157.397 65.1418 158.298 105.16 158.298Z" fill="#CED3CE"/>
</g>
<path d="M78.0601 140.717C78.0601 145.118 74.3229 148.686 69.7115 148.686C65.1016 148.686 61.3629 145.118 61.3629 140.717C61.3629 136.314 65.1016 132.746 69.7115 132.746C74.3229 132.746 78.0601 136.314 78.0601 140.717Z" fill="#F7F5CD"/>
<path d="M74.8794 140.717C74.8794 143.256 72.7233 145.315 70.0634 145.315C67.4035 145.315 65.2458 143.256 65.2458 140.717C65.2458 138.176 67.4035 136.117 70.0634 136.117C72.7233 136.117 74.8794 138.176 74.8794 140.717Z" fill="#F08428"/>
<path d="M71.6831 140.717C71.6831 141.571 70.9577 142.264 70.0633 142.264C69.1674 142.264 68.4419 141.571 68.4419 140.717C68.4419 139.862 69.1674 139.169 70.0633 139.169C70.9577 139.169 71.6831 139.862 71.6831 140.717Z" fill="#432B2C"/>
<path d="M79.2115 140.717C79.2115 135.903 75.124 132.001 70.0817 132.001C65.0393 132.001 60.9519 135.903 60.9519 140.717C60.9519 145.531 65.0393 149.432 70.0817 149.432C75.124 149.432 79.2115 145.531 79.2115 140.717ZM85.5527 141.161C85.5527 149.515 78.4612 156.285 69.7112 156.285C60.9643 156.285 53.8712 149.515 53.8712 141.161C53.8712 132.81 60.9643 126.038 69.7112 126.038C78.4612 126.038 85.5527 132.81 85.5527 141.161Z" fill="#373737"/>
<path d="M77.2479 140.809C77.2479 136.989 74.0052 133.895 70.0061 133.895C66.0054 133.895 62.7642 136.989 62.7642 140.809C62.7642 144.627 66.0054 147.723 70.0061 147.723C74.0052 147.723 77.2479 144.627 77.2479 140.809ZM82.2778 141.161C82.2778 147.788 76.6527 153.159 69.7116 153.159C62.7735 153.159 57.1468 147.788 57.1468 141.161C57.1468 134.536 62.7735 129.164 69.7116 129.164C76.6527 129.164 82.2778 134.536 82.2778 141.161Z" fill="#432B2C"/>
<path d="M79.2119 140.717C79.2119 135.903 75.1244 132 70.0821 132C65.0398 132 60.9523 135.903 60.9523 140.717C60.9523 145.531 65.0398 149.432 70.0821 149.432C75.1244 149.432 79.2119 145.531 79.2119 140.717ZM84.7285 140.717C84.7285 148.492 78.1718 154.797 70.0821 154.797C61.9924 154.797 55.4325 148.492 55.4325 140.717C55.4325 132.939 61.9924 126.636 70.0821 126.636C78.1718 126.636 84.7285 132.939 84.7285 140.717Z" fill="#E2DEB7"/>
<path d="M69.9457 131.08C75.5119 131.08 80.0396 135.403 80.0396 140.717C80.0396 146.031 75.5119 150.352 69.9457 150.352C64.381 150.352 59.8533 146.031 59.8533 140.717C59.8533 135.403 64.381 131.08 69.9457 131.08ZM69.9457 151.649C76.259 151.649 81.3975 146.745 81.3975 140.717C81.3975 134.689 76.259 129.785 69.9457 129.785C63.6323 129.785 58.4954 134.689 58.4954 140.717C58.4954 146.745 63.6323 151.649 69.9457 151.649Z" fill="#F08428"/>
<path d="M169.138 140.719C169.138 145.121 165.399 148.689 160.789 148.689C156.178 148.689 152.441 145.121 152.441 140.719C152.441 136.317 156.178 132.749 160.789 132.749C165.399 132.749 169.138 136.317 169.138 140.719Z" fill="#F7F5CD"/>
<path d="M165.957 140.718C165.957 143.259 163.801 145.318 161.139 145.318C158.48 145.318 156.323 143.259 156.323 140.718C156.323 138.179 158.48 136.12 161.139 136.12C163.801 136.12 165.957 138.179 165.957 140.718Z" fill="#F08428"/>
<path d="M170.288 140.719C170.288 135.904 166.201 132.003 161.16 132.003C156.118 132.003 152.03 135.904 152.03 140.719C152.03 145.533 156.118 149.435 161.16 149.435C166.201 149.435 170.288 145.533 170.288 140.719ZM176.629 141.164C176.629 149.518 169.539 156.287 160.789 156.287C152.041 156.287 144.948 149.518 144.948 141.164C144.948 132.811 152.041 126.041 160.789 126.041C169.539 126.041 176.629 132.811 176.629 141.164Z" fill="#373737"/>
<path d="M168.324 140.812C168.324 136.992 165.083 133.896 161.082 133.896C157.083 133.896 153.84 136.992 153.84 140.812C153.84 144.63 157.083 147.726 161.082 147.726C165.083 147.726 168.324 144.63 168.324 140.812ZM173.355 141.164C173.355 147.791 167.73 153.161 160.789 153.161C153.85 153.161 148.223 147.791 148.223 141.164C148.223 134.538 153.85 129.167 160.789 129.167C167.73 129.167 173.355 134.538 173.355 141.164Z" fill="#432B2C"/>
<path d="M170.288 140.719C170.288 135.904 166.2 132.003 161.16 132.003C156.117 132.003 152.03 135.904 152.03 140.719C152.03 145.533 156.117 149.435 161.16 149.435C166.2 149.435 170.288 145.533 170.288 140.719ZM175.806 140.719C175.806 148.494 169.249 154.8 161.16 154.8C153.068 154.8 146.51 148.494 146.51 140.719C146.51 132.942 153.068 126.639 161.16 126.639C169.249 126.639 175.806 132.942 175.806 140.719Z" fill="#E2DEB7"/>
<path d="M161.023 131.083C166.588 131.083 171.116 135.406 171.116 140.719C171.116 146.033 166.588 150.356 161.023 150.356C155.457 150.356 150.929 146.033 150.929 140.719C150.929 135.406 155.457 131.083 161.023 131.083ZM161.023 151.652C167.337 151.652 172.474 146.748 172.474 140.719C172.474 134.691 167.337 129.788 161.023 129.788C154.71 129.788 149.573 134.691 149.573 140.719C149.573 146.748 154.71 151.652 161.023 151.652Z" fill="#F08428"/>
<path d="M161.831 139.234C162.126 139.664 161.929 140.256 161.474 140.511C161.323 140.596 161.176 140.69 161.053 140.789C160.886 140.924 160.774 141.056 160.79 141.162C160.831 141.504 155.314 134.232 153.227 131.474C152.772 130.872 152.779 130.002 153.244 129.408C153.629 128.915 154.378 128.924 154.75 129.427L155.367 130.262L161.831 139.234Z" fill="#C3C1C0"/>
<path d="M162.196 139.49C162.274 139.595 162.244 139.66 162.13 139.597C162.048 139.552 161.972 139.507 161.977 139.53C162.051 139.877 155.874 131.411 155.284 130.604C155.253 130.563 155.252 130.513 155.273 130.467C155.316 130.375 155.441 130.361 155.501 130.443L162.196 139.49Z" fill="#414042"/>
<path d="M160.785 140.399C160.936 140.62 160.751 140.898 160.789 141.163C160.835 141.536 154.221 132.789 152.735 130.823C152.562 130.595 152.569 130.271 152.745 130.045C152.992 129.729 153.475 129.744 153.701 130.075L160.785 140.399Z" fill="#414042"/>
<path d="M162.761 140.718C162.761 141.574 162.035 142.266 161.139 142.266C160.245 142.266 159.52 141.574 159.52 140.718C159.52 139.864 160.245 139.172 161.139 139.172C162.035 139.172 162.761 139.864 162.761 140.718Z" fill="#432B2C"/>
<path d="M168.043 127.715C168.149 127.768 168.267 127.79 168.385 127.778C168.393 127.777 168.395 127.767 168.388 127.763C166.228 126.661 163.762 126.035 161.14 126.035C160.994 126.035 160.85 126.037 160.706 126.041C160.734 126.041 160.762 126.041 160.79 126.041C163.405 126.041 165.87 126.645 168.043 127.715Z" fill="#BEBDBB"/>
<path d="M146.37 144.821C146.451 145.09 146.801 145.152 146.99 144.945C147.077 144.849 147.107 144.715 147.071 144.591C146.705 143.361 146.51 142.062 146.51 140.719C146.51 135.438 149.534 130.836 154.009 128.427C156.125 127.289 158.563 126.639 161.16 126.639C163.319 126.639 165.37 127.089 167.217 127.895C167.263 127.916 167.314 127.922 167.364 127.913C167.612 127.872 167.667 127.534 167.436 127.432C165.415 126.539 163.164 126.041 160.789 126.041C160.761 126.041 160.733 126.041 160.705 126.041C152.411 126.262 145.76 132.749 145.76 140.719C145.76 142.144 145.974 143.519 146.37 144.821Z" fill="#2A2928"/>
<path d="M146.679 142.864C146.818 143.739 147.911 144.019 148.497 143.356C148.648 143.185 148.793 143.012 148.934 142.837C149.409 142.245 149.573 141.477 149.573 140.719C149.573 137.714 150.85 134.987 152.913 133.01C153.386 132.557 153.187 131.419 152.792 130.898C152.421 130.408 152.729 130.066 153.107 129.582L153.244 129.408C153.418 129.185 153.177 128.907 152.939 129.062C149.059 131.595 146.51 135.871 146.51 140.719C146.51 141.448 146.568 142.165 146.679 142.864ZM153.367 134.446C152.438 135.478 153.362 135.891 154.31 134.877C154.48 134.695 154.657 134.517 154.841 134.341C155.024 134.167 155.049 133.877 154.896 133.676C154.733 133.46 154.428 133.425 154.224 133.603C153.921 133.867 153.635 134.148 153.367 134.446ZM156.885 132.313C156.98 132.441 157.161 132.469 157.292 132.377C157.305 132.367 157.319 132.357 157.333 132.347C157.646 132.126 157.454 131.697 157.099 131.84C157.066 131.853 157.033 131.867 157.001 131.88C156.83 131.952 156.775 132.164 156.885 132.313ZM155.367 130.262C155.665 130.663 156.204 130.791 156.669 130.608C158.011 130.079 159.482 129.788 161.023 129.788C161.092 129.788 161.16 129.789 161.228 129.79C161.51 129.794 161.801 129.735 162.056 129.617C163.559 128.927 163.594 126.742 161.942 126.659C161.683 126.646 161.422 126.639 161.16 126.639C159.379 126.639 157.673 126.944 156.095 127.503C154.96 127.905 154.651 129.294 155.367 130.262Z" fill="#A4A287"/>
<path d="M149.573 140.719C149.573 141.128 150.069 141.258 150.287 140.911C150.49 140.587 150.687 140.26 150.881 139.932C150.946 139.823 150.985 139.702 151.001 139.577C151.286 137.275 152.425 135.219 154.107 133.706C154.374 133.465 154.413 133.038 154.195 132.751C153.972 132.458 153.567 132.422 153.291 132.664C151.006 134.663 149.573 137.535 149.573 140.719ZM156.354 131.593C156.539 131.844 156.875 131.929 157.165 131.814C157.691 131.605 158.239 131.438 158.806 131.316C158.893 131.297 158.977 131.265 159.054 131.218C159.711 130.818 160.392 130.438 161.088 130.085C161.239 130.009 161.192 129.788 161.023 129.788C159.459 129.788 157.968 130.088 156.609 130.632C156.225 130.785 156.108 131.261 156.354 131.593Z" fill="#F08428"/>
<path d="M155.647 132.911C155.819 133.162 156.164 133.216 156.405 133.031C156.635 132.855 156.688 132.524 156.517 132.291C155.952 131.518 155.516 130.922 155.333 130.672C155.275 130.593 155.264 130.486 155.305 130.397C155.343 130.314 155.333 130.216 155.278 130.142L154.749 129.427C154.377 128.924 153.628 128.915 153.243 129.408L152.441 130.435C152.838 129.926 153.616 129.95 153.981 130.483L155.647 132.911Z" fill="#8E8E8E"/>
<path d="M156.742 132.598C156.789 132.662 156.879 132.675 156.943 132.628C157.006 132.582 157.019 132.494 156.973 132.432L156.672 132.024L155.88 130.953L155.501 130.443C155.441 130.361 155.316 130.374 155.273 130.466C155.252 130.513 155.258 130.569 155.288 130.611C155.453 130.836 156.012 131.601 156.742 132.598Z" fill="#302F2F"/>
<path d="M155.06 133.891C155.121 133.971 155.236 133.983 155.312 133.917C155.676 133.605 155.756 133.07 155.485 132.675L153.687 130.054C153.468 129.734 153 129.719 152.761 130.025C152.58 130.258 152.577 130.613 152.755 130.849C152.996 131.167 153.361 131.651 153.807 132.239C154.05 132.56 154.318 132.914 154.603 133.288C154.751 133.484 154.904 133.686 155.06 133.891Z" fill="#302F2F"/>
<path d="M44.1326 127.78H50.9431C51.8593 127.78 52.6021 128.523 52.6021 129.439C52.6021 130.355 51.8593 131.098 50.9431 131.098H44.1388C43.1762 131.098 42.3981 130.354 42.3981 129.436C42.3981 128.521 43.1746 127.78 44.1326 127.78Z" fill="#434143"/>
<path d="M45.9384 116.753L45.7586 116.949C45.2921 117.453 45.0224 118.201 45.0224 118.99V123.947C45.0224 125.03 45.6718 125.924 46.5042 125.985C46.9336 126.016 47.318 125.64 47.4141 125.094C47.7241 123.317 48.231 119.438 47.2823 117.095C47.0219 116.452 46.3678 116.289 45.9384 116.753Z" fill="white"/>
<path d="M49.0647 116.582C48.9711 115.432 47.6295 114.854 46.73 115.577C46.3902 115.85 46.1926 116.262 46.1926 116.698V124.935C46.1926 125.734 46.7271 126.434 47.4978 126.645C48.684 126.969 49.8321 126.017 49.7324 124.791L49.0647 116.582Z" fill="#52373A"/>
<path d="M85.527 140.299C85.5329 140.399 85.6742 140.435 85.7297 140.351C86.4722 139.237 86.9202 138.08 87.0984 136.925C87.5417 134.065 86.3389 131.218 83.8929 129.073C80.5479 126.14 75.8249 124.802 71.3452 124.802C70.6738 124.803 70.028 124.857 69.4043 124.958C68.6685 125.078 68.966 126.038 69.7115 126.038C78.1581 126.038 85.0594 132.348 85.527 140.299Z" fill="#BEBDBB"/>
<path d="M75.256 139.703C76.1633 140.127 77.1872 139.462 76.8421 138.522C75.8527 135.827 73.165 133.895 70.0057 133.895C68.2698 133.895 66.6766 134.478 65.4291 135.449C64.6305 136.071 65.1312 137.19 66.1379 137.296C66.5113 137.335 66.9164 137.216 67.2242 137.001C68.0199 136.445 69.0009 136.118 70.0631 136.118C72.0426 136.118 73.7435 137.258 74.4842 138.888C74.6415 139.234 74.9115 139.542 75.256 139.703Z" fill="#B4B495"/>
<path d="M71.1003 138.201C72.5549 138.574 73.6301 137.304 72.2856 136.635C71.6207 136.304 70.8648 136.117 70.0633 136.117C68.6492 136.117 68.9363 137.687 70.3134 138.009C70.5723 138.069 70.8346 138.133 71.1003 138.201Z" fill="#F08428"/>
<path d="M84.1481 145.943C84.3082 146.072 84.3822 145.929 84.4418 145.732C84.7988 144.55 84.7651 143.284 85.0276 142.084C85.2404 141.111 85.55 140.129 85.4122 139.142C84.3789 131.745 77.7437 126.038 69.7112 126.038C68.7145 126.038 67.7389 126.126 66.7927 126.294C65.2368 126.571 63.7897 127.274 62.5512 128.256C61.6556 128.966 60.7852 129.75 59.9195 130.575C62.5531 128.137 66.1353 126.636 70.0817 126.636C78.1714 126.636 84.7281 132.939 84.7281 140.717C84.7281 142.335 84.4442 143.892 83.9206 145.339C83.8538 145.524 83.9953 145.819 84.1481 145.943ZM55.3918 138.117C55.569 138.117 55.7086 137.977 55.7465 137.804C56.2354 135.571 57.2739 133.534 58.7198 131.829C57.2969 133.435 55.5686 135.782 55.0539 137.649C54.9609 137.991 55.071 138.117 55.3918 138.117Z" fill="#2A2928"/>
<path d="M78.1284 141.259C78.5961 141.547 79.2119 141.267 79.2119 140.717C79.2119 135.903 75.1244 132 70.0821 132C66.859 132 64.0252 133.595 62.4012 136.003C62.062 136.507 62.4722 137.133 63.079 137.133C63.5666 137.133 64.0181 136.888 64.33 136.513C65.6567 134.918 67.7062 133.895 70.0062 133.895C73.7726 133.895 76.869 136.642 77.2161 140.151C77.2517 140.511 77.4415 140.844 77.7519 141.03C77.8789 141.106 78.0044 141.182 78.1284 141.259Z" fill="#312021"/>
<path d="M82.1559 144.192C83.0715 144.963 84.2642 144.447 84.4882 143.272C84.6461 142.443 84.7285 141.589 84.7285 140.717C84.7285 132.939 78.1718 126.636 70.0821 126.636C66.1356 126.636 62.5535 128.136 59.9199 130.575C59.9013 130.593 59.8827 130.611 59.8641 130.629C59.5355 130.942 59.1418 131.352 58.7202 131.829C57.7083 133.022 56.896 134.378 56.3319 135.85C55.9222 136.919 56.8522 137.842 57.9762 137.625C58.615 137.502 59.1383 137.049 59.4029 136.454C61.1462 132.538 65.2164 129.785 69.9457 129.785C76.259 129.785 81.3975 134.689 81.3975 140.717C81.3975 141.224 81.361 141.723 81.2905 142.212C81.1931 142.887 81.634 143.753 82.1559 144.192ZM79.3486 142.052C79.6008 142.225 79.9442 142.081 79.9791 141.777C80.0191 141.429 80.0396 141.075 80.0396 140.717C80.0396 135.403 75.5119 131.08 69.9457 131.08C65.987 131.08 62.553 133.268 60.9002 136.443C60.7124 136.804 60.9989 137.209 61.405 137.184C61.6055 137.171 61.7948 137.051 61.8868 136.872C63.3739 133.986 66.4856 132 70.0821 132C75.1244 132 79.2119 135.903 79.2119 140.717C79.2119 141.029 79.1941 141.338 79.1607 141.642C79.1432 141.802 79.2162 141.962 79.3486 142.052Z" fill="#A4A287"/>
<path d="M80.2479 142.689C80.6462 142.982 81.2054 142.775 81.2795 142.286C81.3573 141.773 81.3975 141.25 81.3975 140.717C81.3975 134.689 76.259 129.785 69.9457 129.785C65.2335 129.785 61.1755 132.518 59.4219 136.412C59.2142 136.873 59.5923 137.355 60.0948 137.299C60.3453 137.271 60.5835 137.106 60.6883 136.877C62.2453 133.469 65.8091 131.08 69.9457 131.08C75.5119 131.08 80.0396 135.403 80.0396 140.717C80.0396 141.149 80.0097 141.575 79.9518 141.992C79.9152 142.256 80.0333 142.531 80.2479 142.689Z" fill="#F08428"/>
<path d="M100.336 139.666L100.274 139.622C99.5964 139.153 96.0375 132.945 95.3509 133.397C94.3443 134.061 92.8493 133.487 92.2926 132.417C90.9319 129.804 88.0826 127.725 84.5036 127.081C78.8878 126.074 73.6021 128.983 72.6968 133.578C71.7916 138.173 75.6109 142.716 81.2252 143.724C82.1754 143.894 95.6562 143.758 99.5809 142.98C101.233 142.653 101.7 140.613 100.336 139.666Z" fill="#373737"/>
<path d="M79.187 131.104L87.92 132.672C88.1277 132.709 88.2656 132.902 88.2269 133.099C88.1881 133.297 87.9851 133.429 87.7789 133.392L79.0459 131.824C78.8382 131.786 78.7003 131.594 78.739 131.397C78.7793 131.198 78.9793 131.067 79.187 131.104Z" fill="#A4A6A9"/>
<path d="M140.403 139.919C140.526 137.158 141.459 131.098 146.769 124.828C151.323 120.052 161.751 116.392 174.493 125.351L174.529 125.374C175.03 125.698 174.771 126.445 174.166 126.417C165.557 126.007 156.022 128.361 150.412 135.018C149.062 136.64 147.898 138.561 146.461 140.091C145.459 141.155 143.437 141.254 142.012 141.377C141.124 141.454 140.364 140.77 140.403 139.919Z" fill="#F08428"/>
<path d="M145.728 133.402C145.063 133.139 145.215 131.835 145.639 130.423C147.27 125.014 153.528 122.109 159.157 122.109C161.882 122.109 167.224 122.874 170.381 124.304C170.634 124.419 170.572 124.776 170.294 124.804C164.51 125.388 158.937 124.965 153.859 127.78C151.695 128.979 149.721 131.327 147.681 132.717C146.717 133.372 146.095 133.549 145.728 133.402Z" fill="white"/>
<path d="M134.776 95.3423L130.977 88.964C130.856 88.7613 130.892 88.5067 131.064 88.3425L136.422 83.2339C136.914 82.7648 137.518 82.417 138.183 82.2202L142.688 80.8927C142.993 80.8024 143.312 80.983 143.378 81.2819L145.008 88.8042C145.073 89.1046 144.852 89.3932 144.531 89.4228L140.874 89.7676C140.597 89.7942 140.386 90.0162 140.386 90.2811V90.5712C140.386 90.8227 140.575 91.0373 140.834 91.0802C141.314 91.1616 141.446 91.761 141.04 92.02L135.547 95.5155C135.286 95.6827 134.933 95.6028 134.776 95.3423Z" fill="#F08428"/>
<path d="M143.442 81.6718C143.423 81.5331 143.531 81.4093 143.671 81.4093C144.821 81.4093 145.754 82.3002 145.754 83.3997V87.6367C145.754 88.0078 145.667 88.3731 145.502 88.7069C145.46 88.7916 145.393 88.8608 145.314 88.9124C144.949 89.1501 144.461 88.9282 144.401 88.4972L143.442 81.6718Z" fill="#F9AE2E"/>
<path d="M51.7534 107.619C51.9515 107.619 52.1306 107.737 52.2091 107.919L52.5898 108.802C52.9494 109.638 53.5151 110.381 54.2359 110.967C55.1137 111.679 54.7633 113.091 53.6546 113.31L52.6055 113.517C51.4509 113.745 50.389 112.811 49.972 111.711C49.2433 109.788 47.53 108.279 45.3386 107.815C45.2498 107.796 45.2655 107.619 45.3563 107.619H51.7534Z" fill="#4C4D4E"/>
<path d="M113.068 113.938C113.586 113.185 113.501 111.491 114.412 111.565L75.0741 108.567C73.9529 108.482 72.9018 109.12 72.46 110.154C72.0485 111.117 71.1039 111.744 70.0565 111.748L52.0732 111.824C50.1294 111.831 48.5608 113.342 48.5685 115.198C48.5991 121.863 54.1087 127.197 60.7711 127.012L87.2378 126.276C89.2349 126.22 90.4221 126.239 91.8302 127.657C93.0512 128.886 95.415 130.367 97.093 130.799C98.342 131.12 99.7585 131.601 101.356 132.277C101.673 132.412 101.996 132.546 102.324 132.678C103.512 133.158 104.784 131.908 104.713 130.629C104.54 127.432 110.013 118.381 113.068 113.938Z" fill="#CBC7A0"/>
<path d="M128.674 139.175C123.551 138.274 117.746 138.169 113.305 135.253C110.352 133.315 109.05 130.109 109.185 126.762C109.324 123.28 111.022 120.958 112.311 117.45C112.588 116.699 111.566 116.195 111.137 116.871C108.151 121.585 104.573 128.035 104.713 130.629C104.829 132.728 106.548 134.256 108.554 134.887C116.806 137.485 126.219 139.339 131.795 139.761C130.678 139.586 129.587 139.336 128.674 139.175Z" fill="#F08428"/>
<path d="M140.661 125.671C140.64 125.806 140.598 125.937 140.542 126.062C140.527 126.099 140.507 126.137 140.488 126.176C140.442 126.281 140.395 126.383 140.353 126.486L140.339 126.514C140.293 126.627 140.249 126.736 140.211 126.842L140.175 126.938C140.147 127.009 140.121 127.08 140.097 127.151C140.083 127.185 140.073 127.219 140.06 127.254C140.039 127.32 140.018 127.382 140 127.445L139.969 127.539C139.949 127.608 139.928 127.678 139.91 127.741L139.894 127.796C139.873 127.879 139.853 127.959 139.832 128.036L139.822 128.091C139.808 128.147 139.795 128.2 139.784 128.252L139.77 128.318C139.761 128.363 139.753 128.406 139.747 128.446L139.735 128.509C139.729 128.549 139.721 128.589 139.716 128.625L139.708 128.668C139.702 128.717 139.694 128.761 139.69 128.801L139.688 128.825L139.679 128.91L139.676 128.941L139.671 128.993V129.015L139.67 129.049V129.057C139.67 129.058 139.67 129.059 139.669 129.059C139.668 129.066 139.66 129.069 139.655 129.065L138.199 128.122C137.738 127.823 137.329 127.487 136.973 127.123C135.903 126.032 135.329 124.69 135.376 123.302L135.844 108.92C135.857 108.553 136.058 108.223 136.38 107.983C136.632 107.798 136.951 107.665 137.31 107.619C137.411 107.603 137.515 107.597 137.62 107.597C138.347 107.597 140.249 108.296 140.386 109.01C141.167 113.105 141.687 119.063 140.661 125.671Z" fill="#F08428"/>
<path d="M137.734 125.022C137.713 125.158 137.673 125.291 137.612 125.414C137.596 125.451 137.578 125.489 137.56 125.526C137.511 125.633 137.467 125.735 137.426 125.835L137.412 125.866C137.364 125.979 137.322 126.085 137.28 126.193L137.244 126.287C137.216 126.361 137.19 126.432 137.167 126.501C137.156 126.537 137.143 126.571 137.133 126.606C137.109 126.671 137.091 126.734 137.069 126.794L137.041 126.89C137.019 126.96 136.999 127.03 136.981 127.093C136.977 127.106 136.961 127.11 136.952 127.101C135.896 126.014 135.33 124.681 135.376 123.302L135.845 108.92C135.857 108.553 136.058 108.223 136.381 107.983C136.84 107.645 137.402 108.048 137.505 108.608C138.259 112.692 138.739 118.544 137.734 125.022Z" fill="white"/>
<path d="M141.383 122.497C141.428 122.432 141.476 122.368 141.522 122.303C141.64 122.136 141.76 121.968 141.882 121.804C141.947 121.715 142.015 121.628 142.082 121.541C142.239 121.335 142.395 121.131 142.561 120.933C142.959 120.452 143.376 119.99 143.72 119.469C145.038 117.471 145.478 115.012 144.973 112.703C144.699 111.448 144.167 110.23 143.727 109.022C143.248 107.711 142.763 106.403 142.273 105.098C141.633 103.393 140.98 101.693 140.324 99.9937C140.124 99.4787 139.924 98.9622 139.724 98.4472C139.607 98.1468 139.49 97.8449 139.373 97.543C139.256 97.247 139.139 96.9496 139.021 96.6536C138.52 95.3768 137.025 94.8161 135.806 95.4437C135.582 95.5588 135.359 95.674 135.135 95.7893C135.053 95.8308 135.063 95.8234 135.096 95.9048C135.155 96.0542 135.214 96.2037 135.271 96.3532C135.494 96.917 135.714 97.4808 135.936 98.0462C136.745 100.103 137.553 102.163 138.36 104.219C138.596 104.824 138.988 105.52 138.948 106.178C138.94 106.31 138.915 106.413 138.943 106.544C138.962 106.629 138.979 106.717 138.996 106.804C139.036 107.002 139.075 107.202 139.112 107.401C139.191 107.821 139.263 108.241 139.331 108.661C139.666 110.767 139.876 112.892 139.983 115.02C140.159 118.552 140.045 122.101 139.613 125.612C139.609 125.65 139.666 125.664 139.679 125.63L139.707 125.56C140.152 124.489 140.715 123.453 141.383 122.497Z" fill="#F08428"/>
<path d="M145.197 98.2428C144.068 95.9049 142.276 93.4032 139.704 93.7604C139.18 93.8329 138.669 93.9883 138.197 94.2162C138.108 94.2591 138.069 94.2429 138.109 94.345C138.137 94.416 138.166 94.4885 138.194 94.5595C138.252 94.7031 138.309 94.8466 138.366 94.9902C138.486 95.2906 138.604 95.591 138.723 95.8914C138.824 96.1445 138.921 96.399 139.021 96.6536C139.138 96.9496 139.256 97.247 139.372 97.543C139.49 97.8449 139.606 98.1468 139.724 98.4472C139.924 98.9622 140.124 99.4787 140.324 99.9937C140.98 101.693 141.632 103.393 142.273 105.098C142.762 106.403 143.248 107.711 143.727 109.022C144.167 110.23 144.698 111.448 144.973 112.703C145.478 115.012 145.038 117.471 143.72 119.469C143.376 119.99 142.959 120.452 142.561 120.933C142.395 121.131 142.238 121.335 142.082 121.541C142.015 121.628 141.947 121.715 141.882 121.804C141.759 121.968 141.64 122.136 141.522 122.303C141.476 122.368 141.428 122.432 141.383 122.497C140.955 123.108 140.577 123.756 140.239 124.421C140.214 124.468 140.189 124.512 140.166 124.558L140.126 124.641C140.092 124.709 140.058 124.779 140.025 124.848C139.944 125.017 139.867 125.186 139.792 125.359C139.765 125.426 139.737 125.494 139.707 125.56L139.679 125.63C139.611 125.798 139.566 125.976 139.543 126.157C139.43 127.009 139.298 127.86 139.146 128.706C138.999 129.529 138.872 130.886 138.852 131.721C138.845 131.973 138.838 132.224 138.825 132.476C138.765 133.805 138.628 135.147 138.29 136.44C138.019 137.481 137.596 138.702 136.641 139.357C136.173 139.678 135.559 139.813 134.997 139.888C134.308 139.98 133.606 139.964 132.915 139.902C132.348 139.85 131.785 139.764 131.218 139.712C130.788 139.675 130.36 139.631 129.933 139.582C128.978 139.476 128.026 139.345 127.077 139.202C124.878 138.87 122.691 138.462 120.516 138.002C115.723 136.989 110.971 135.742 106.345 134.166C105.245 133.791 104.154 133.398 103.073 132.976C101.897 132.517 100.745 132.001 99.5578 131.569C97.4032 130.787 95.0037 130.103 92.6725 130.303C91.5983 130.395 90.4512 130.716 89.7429 131.54C89.0515 132.354 89.0531 133.494 89.6747 134.343C89.9583 134.728 90.3443 134.978 90.7333 135.256C91.1209 135.536 91.5006 135.829 91.8711 136.13C92.7949 136.878 93.68 137.672 94.5496 138.475C96.4902 140.269 98.3643 142.125 100.24 143.98C100.751 144.486 101.264 144.994 101.776 145.502C102.249 145.971 102.706 146.447 103.275 146.816C104.228 147.433 105.307 147.671 106.428 147.838C108.497 148.146 110.605 148.196 112.694 148.143C115.02 148.084 117.34 147.881 119.648 147.603C123.971 147.082 128.259 146.293 132.504 145.355C133.333 145.172 134.17 144.998 134.992 144.784C136.184 144.472 137.252 143.786 138.01 142.854C138.399 142.376 138.706 141.836 138.911 141.262C139.103 140.726 139.172 140.174 139.247 139.615C139.389 138.552 139.543 137.492 139.734 136.437C140.157 134.068 140.736 131.694 141.742 129.483C142.685 127.412 144.068 125.547 145.796 124.006C147.279 122.686 148.989 121.612 150.812 120.77C151.062 120.652 151.26 120.443 151.323 120.174C152.558 114.89 148.363 104.798 145.197 98.2428Z" fill="#DDD7B1"/>
<path d="M155.232 118.807C155.211 118.642 155.26 118.745 155.217 118.584C154.8 117.068 154.171 115.611 153.537 114.166C152.025 110.721 150.36 107.334 148.682 103.96C147.409 101.402 146.113 98.8555 144.807 96.3131C144.567 95.8524 144.162 96.1456 144.395 96.6102C147.301 102.424 151.769 112.416 151.535 118.497C151.503 119.331 152.402 120.089 153.192 119.82C153.547 119.698 153.905 119.586 154.267 119.481C154.547 119.398 154.873 119.353 155.141 119.239C155.283 119.18 155.249 118.933 155.232 118.807Z" fill="#ECF6C5"/>
<path d="M134.336 143.282C135.585 143.234 136.061 144.533 134.845 144.821C127.931 146.453 113.62 149.352 105.273 147.634C104.158 147.405 103.141 146.856 102.351 146.071C101.011 144.744 102.638 141.875 104.501 142.173C110.747 143.169 120.184 143.821 134.336 143.282Z" fill="#432B2C"/>
<path d="M109.184 144.213C106.702 144.014 105.346 146.769 107.835 146.851C109.322 146.896 111.729 146.84 114.449 146.704C118.565 146.499 118.397 144.62 114.277 144.483C112.384 144.42 110.694 144.334 109.184 144.213Z" fill="#52373A"/>
<path d="M73.5479 112.759C67.698 114.073 62.1736 116.614 57.4568 120.172C53.9102 122.846 50.6675 126.119 48.4727 129.917C47.7968 131.086 47.1536 132.363 46.9242 133.693C46.856 134.099 46.7955 134.561 46.9102 134.966C46.9435 135.086 47.0955 135.098 47.1617 134.992C51.4023 128.249 60.0121 117.384 73.5479 112.759Z" fill="#F08428"/>
<path d="M103.627 132.348C102.199 121.313 93.2257 112.812 82.3241 111.735C82.0591 111.708 81.7925 111.702 81.5274 111.714C78.9776 111.818 76.437 112.133 73.9461 112.667C73.8128 112.695 73.6811 112.728 73.5478 112.759C60.2716 117.296 51.7342 127.835 47.4103 134.6C47.1625 134.988 47.1282 135.518 47.5193 135.761C48.1998 136.186 49.2569 136.181 50.0118 136.098C51.1759 135.973 52.2702 135.493 53.2746 134.94C54.3473 134.349 55.6168 133.919 56.7762 133.498C64.5156 130.688 72.9386 130.571 81.0175 131.921C87.382 132.985 93.4318 135.027 99.5995 136.789C101.863 137.438 103.986 135.125 103.627 132.348Z" fill="#F08428"/>
<path d="M100.784 131.54C90.8668 124.802 71.6833 123.108 57.2307 127.388C56.6618 127.556 52.117 128.557 52.0798 128.615C56.3471 122.159 64.8693 116.518 72.4243 114.251C80.407 111.853 89.0517 112.978 95.1031 118.798C96.7446 120.377 98.1427 122.204 99.2696 124.15C100.13 125.637 101.962 128.385 102.221 130.035C102.435 131.395 101.601 132.094 100.784 131.54Z" fill="white"/>
<path d="M98.0665 126.492C97.9998 126.38 97.9347 126.275 97.8758 126.175C97.6572 125.814 97.4557 125.481 97.2899 125.194C96.225 123.355 94.9493 121.715 93.4985 120.32C90.0341 116.988 85.4552 115.229 80.2564 115.229C77.8987 115.229 75.4931 115.593 73.1029 116.309C69.0154 117.537 64.8225 119.738 61.245 122.405C60.6808 122.825 71.9992 117.113 79.5976 117.745C92.6304 118.829 98.4059 127.055 98.0665 126.492Z" fill="#F08428"/>
<path d="M115.037 111.415C115.01 113.502 101.901 116.571 93.942 113.623C87.5434 111.25 78.4151 108.568 72.4086 108.385C70.6199 108.331 69.71 106.326 70.8663 105.021C74.7725 100.612 78.243 100.692 82.904 104.09C86.1979 106.492 89.887 107.411 93.7544 108.296C97.7349 109.204 100.833 110.186 105.025 109.264C109.177 108.351 114.305 104.766 115.037 111.415Z" fill="#432B2C"/>
<path d="M102.526 106.203C109.12 105.26 109.079 110.777 102.418 110.818C99.8468 110.834 97.2456 110.493 95.0702 109.601C89.2885 107.227 81.0438 104.546 75.6186 104.362C73.7322 104.297 74.6358 101.592 76.4041 100.932C78.9347 99.987 81.7203 100.105 84.9112 101.451C90.6355 103.868 95.9724 107.141 102.526 106.203Z" fill="#52373A"/>
<path d="M133.867 141.012C129.705 141.012 125.561 140.267 121.55 139.253C119.984 138.858 118.256 138.588 116.72 137.959C115.787 137.577 116.55 136.49 117.515 136.784C120.52 137.7 124.509 138.647 128.248 139.079C130.043 139.288 131.842 139.496 133.65 139.507C135.483 139.519 136.814 140.659 135 140.928C134.605 140.986 134.216 141.012 133.867 141.012Z" fill="#432B2C"/>
<path d="M68.208 106.416C68.208 107.298 67.7275 108.013 67.1338 108.013H42.9096C42.6136 108.013 42.3454 107.835 42.1501 107.547C41.9563 107.255 41.8354 106.856 41.8354 106.416C41.8354 105.536 42.3175 104.819 42.9096 104.819H67.1338C67.4314 104.819 67.6996 104.999 67.8933 105.287C68.0887 105.577 68.208 105.975 68.208 106.416Z" fill="#4C4D4E"/>
<path d="M67.8933 105.287C68.2601 105.832 67.6757 106.416 67.019 106.416H43.9529C42.7835 106.416 41.7402 104.819 42.9096 104.819H67.1338C67.4314 104.819 67.6996 104.999 67.8933 105.287Z" fill="#6C6B6D"/>
<path d="M136.347 86.765C135.79 86.3122 134.942 86.3773 134.465 86.9101L131.024 91.0337C130.96 91.1109 131.022 91.2273 131.122 91.2173C131.183 91.2111 131.238 91.2558 131.245 91.3172L131.359 92.3969C131.37 92.5041 131.46 92.5854 131.568 92.5854H132.096C132.194 92.5854 132.258 92.3946 132.222 92.3028C132.2 92.2465 132.287 92.2006 132.327 92.2436C132.363 92.282 132.404 92.3092 132.448 92.3279C132.526 92.361 132.6 92.2734 132.67 92.2252C132.75 92.1695 132.868 92.096 132.871 91.9981C132.872 91.9826 132.872 91.9673 132.873 91.952C132.881 91.7715 133.039 91.6797 133.212 91.7049C133.389 91.7307 133.619 91.7503 133.738 91.6175L136.489 88.5572C136.968 88.0244 136.905 87.2179 136.347 86.765Z" fill="#C3C1C0"/>
<path d="M135.948 90.5091C135.429 91.3644 134.079 91.4444 133.101 90.7902C132.125 90.1347 131.814 88.9478 132.408 88.1383C133.003 87.3288 134.319 87.1497 135.256 87.8571C136.214 88.5808 136.545 89.5249 135.948 90.5091Z" fill="#432B2C"/>
<path d="M132.834 88.1045C132.677 88.1462 132.573 87.945 132.698 87.8408C132.757 87.7979 133.143 87.6129 133.219 87.6203C133.43 87.6412 133.454 87.9401 133.249 87.9946L132.834 88.1045Z" fill="#432B2C"/>
<path d="M135.781 90.5859C135.331 91.3081 134.13 91.4161 133.094 90.8301C132.059 90.2426 131.582 89.183 132.031 88.4623C132.479 87.7415 133.682 87.632 134.717 88.2181C135.753 88.8056 136.229 89.8652 135.781 90.5859Z" fill="#C3C1C0"/>
<path d="M135.464 90.4824C135.1 91.1336 134.072 91.2905 133.17 90.8302C132.267 90.37 131.829 89.4687 132.194 88.8176C132.558 88.1649 133.586 88.0096 134.488 88.4698C135.392 88.9286 135.829 89.8298 135.464 90.4824Z" fill="#414042"/>
<path d="M134.303 88.7894C133.395 88.2804 132.637 88.526 132.226 88.9063C130.98 90.3714 129.212 91.6722 128.029 93.4762C127.995 93.5221 128.044 93.639 128.061 93.6923C128.108 93.8334 128.143 93.9346 128.181 94.0357C128.251 94.2255 128.451 94.3328 128.65 94.2963C128.717 94.284 128.785 94.2721 128.852 94.2607C128.964 94.2417 129.069 94.3179 129.09 94.4293C129.111 94.5411 129.22 94.6138 129.334 94.6174C129.362 94.6183 129.391 94.6201 129.419 94.6227C129.667 94.6451 130.268 94.5286 130.451 94.3597C131.748 93.1614 133.539 92.1785 134.981 90.9141C135.177 90.7418 135.372 90.5319 135.354 90.2713C135.321 89.7765 134.861 89.1408 134.303 88.7894Z" fill="#432B2C"/>
<path d="M129.784 93.5028C130.235 94.006 130.278 94.6779 129.88 95.0034C129.481 95.329 128.793 95.184 128.341 94.6793C127.889 94.1747 127.846 93.5028 128.244 93.1773C128.643 92.8532 129.333 92.9982 129.784 93.5028Z" fill="#C3C1C0"/>
<path d="M130.198 91.6871C130.269 91.8065 130.158 91.9536 130.022 91.9223C129.237 91.7402 128.432 91.649 127.744 91.5954C127.587 91.585 126.922 91.511 126.209 91.4563C125.269 91.3793 124.239 91.3393 124.174 91.5258L124.286 91.1129L124.326 90.9599C124.542 90.1428 125.254 89.5465 126.099 89.528C127.17 89.491 128.242 89.4984 129.31 89.5428C129.453 89.5478 129.596 89.5535 129.74 89.56C130.538 89.5962 130.859 90.5434 130.281 91.0952C130.25 91.1233 130.221 91.1603 130.201 91.1973C130.109 91.3467 130.106 91.5302 130.198 91.6871Z" fill="#EFCAA1"/>
<path d="M130.197 91.6869C130.268 91.8063 130.157 91.9535 130.022 91.9221C129.236 91.7401 128.432 91.6489 127.744 91.5952C127.587 91.5848 126.922 91.5108 126.209 91.4561C125.268 91.3791 124.239 91.3392 124.174 91.5256C124.24 91.2794 124.458 91.1035 124.713 91.093C125.204 91.0727 125.695 91.0608 126.187 91.055C126.959 91.0476 127.733 91.058 128.502 91.0876C128.891 91.1032 129.287 91.1216 129.687 91.1517C129.926 91.1696 130.077 91.4807 130.197 91.6869Z" fill="#DEB28C"/>
<path d="M100.957 84.7232C101.093 82.8603 102.924 81.6551 104.728 82.1411C106.13 82.5188 107.082 83.8174 107.022 85.2679L106.962 86.7139C106.829 89.9226 109.759 92.395 112.899 91.724L124.287 89.291C125.223 89.0912 126.115 89.7728 126.169 90.7275C126.205 91.3598 125.861 91.947 125.285 92.2097C122.307 93.5672 112.781 97.753 103.907 99.9464C103.337 100.089 100.183 95.365 100.957 84.7232Z" fill="#C7C1B3"/>
<path d="M128.959 122.544C127.916 119.612 127.671 116.339 126.376 113.5C125.595 111.785 126.566 112.118 124.817 112.074C124.422 112.064 121.212 112.343 121.275 112.657C122.602 119.204 125.223 125.535 128.122 131.469C128.551 132.348 129.841 135.523 130.171 136.251C130.365 136.675 133.124 135.915 133.04 135.376C132.719 133.328 129.87 125.101 128.959 122.544Z" fill="#C7C1B3"/>
<path d="M125.104 65.5937C124.951 65.758 124.771 65.9119 124.583 66.0392C124.526 66.0806 124.473 66.1161 124.411 66.1502L124.362 66.1827C123.7 66.5705 122.636 66.6607 122.081 67.0884L122.058 67.1032C121.48 67.5679 121.733 68.9146 120.826 69.0567C120.553 69.0995 120.155 68.9979 119.708 68.8151C118.385 68.2725 118.023 68.3513 119.021 69.3763C119.563 69.9328 119.147 70.7928 118.665 71.402C118.161 72.0408 117.671 72.7686 116.008 72.9813C115.514 73.045 114.948 73.0509 114.375 72.9932C113.716 72.9266 113.046 72.8067 112.48 72.7371C109.828 72.4145 106.268 72.1644 105.164 69.8543C103.044 65.4191 97.372 62.076 99.4894 57.1702C102.608 49.9366 112.251 47.4918 118.614 52.3147C121.311 54.3644 121.032 55.7481 121.354 58.5687C121.485 59.7082 121.939 61.0964 122.835 61.8674C123.103 62.0982 123.459 62.2551 123.825 62.4046C124.041 62.4919 124.258 62.5762 124.465 62.671C124.864 62.8545 125.226 63.0735 125.445 63.4139C125.938 64.1908 125.662 64.9959 125.104 65.5937Z" fill="#EFCAA1"/>
<path d="M101.642 64.5341C101.87 65.5247 101.7 66.8533 101.041 67.566C100.63 68.0119 100.312 68.8286 100.917 68.8752C101.396 68.9121 101.837 69.3716 101.479 69.6917C100.863 70.2415 99.8859 70.4313 98.9536 70.5616C98.0988 70.6811 97.6869 71.4493 98.5166 71.6868C99.1571 71.8701 99.9317 71.9025 100.309 71.8743C101.695 71.7692 102.921 70.5957 103.8 69.6663C105.147 68.2397 105.032 66.2404 104.66 64.4897C104.561 64.0205 103.411 60.3327 104.065 60.0885C104.097 60.0768 104.132 60.0716 104.17 60.0722C106.326 60.1069 108.472 61.322 109.983 59.7851C110.106 59.6623 110.147 59.0881 110.223 58.909C110.585 58.0758 111.298 57.4129 112.071 56.9201C113.979 55.7036 117.185 54.3791 119.487 55.1442C120.718 55.552 122.127 57.6375 123.549 57.5251C123.833 57.5027 123.817 57.1319 123.555 57.0197C123.251 56.8894 123.379 56.6142 123.71 56.6197C124.87 56.6389 126.152 56.0197 127.037 55.4431C127.51 55.1353 128.22 54.4102 128.269 53.8301C128.328 53.1271 127.448 53.0679 127.441 52.9688C127.558 54.6973 125.448 55.4239 123.951 55.1871C122.129 54.9 121.782 52.5781 120.08 51.8825C118.034 51.0449 115.669 51.076 113.483 50.9931C110.375 50.8762 106.892 51.1751 104.324 53.0206C100.59 55.7006 100.736 60.5961 101.642 64.5341Z" fill="#3D1415"/>
<path d="M126.262 126.197C125.454 123.512 125.467 120.543 124.402 117.936C123.76 116.36 123.683 116.304 121.95 116.207C121.556 116.185 118.344 116.335 118.383 116.62C119.189 122.583 121.3 128.393 123.718 133.851C124.076 134.66 124.862 137.575 125.597 137.994C127.098 138.851 128.08 135.857 127.839 134.146C127.741 133.446 127.659 132.742 127.611 132.023C127.482 130.112 126.815 128.03 126.262 126.197Z" fill="#E3DFD5"/>
<path d="M119.677 102.092C122.738 102.061 125.397 108.417 126.455 111.834C126.867 113.161 128.11 117.974 129.116 121.55C129.356 122.401 127.616 127.639 126.755 127.841C123.579 128.582 123.078 118.923 120.251 117.252C117.946 115.89 118.835 110.788 118.721 108.45C118.654 107.081 116.796 102.12 119.677 102.092Z" fill="#326172"/>
<path d="M105.161 69.8526C104.285 71.3074 101.424 72.7872 101.99 74.5439C102.355 75.6789 104.107 76.7829 105.037 77.4755C106.339 78.4463 106.903 78.47 108.201 77.4859C109.943 76.1643 110.622 74.1561 110.992 72.1509C111.189 71.0913 111.874 69.4323 110.678 68.7176C109.762 68.1715 105.73 68.9099 105.161 69.8526Z" fill="#EFCAA1"/>
<path d="M97.9484 97.8436C100.703 97.4265 103.106 98.2466 105.882 98.4928C106.346 98.5341 106.806 98.5704 107.241 98.6203C111.031 99.0539 114.813 99.6562 118.465 100.745C123.841 102.348 123.501 105.551 124.442 109.863C125.873 116.431 125.189 121.965 127.364 128.379C127.508 128.805 121.617 131.415 121.353 129.679C120.89 126.63 116.427 112.006 115.562 109.814C113.138 103.677 104.924 108.231 98.5362 107.176C96.7688 106.884 95.1512 106.559 93.6919 106.156C87.9488 104.572 92.058 98.7357 97.9484 97.8436Z" fill="#3B7589"/>
<path d="M83.4881 98.8246C82.138 97.8982 79.0162 97.0355 81.1057 95.1812C82.1876 94.2237 83.1394 93.4734 84.0275 92.3146C86.0271 89.7026 86.5758 86.3033 88.2623 83.5078C90.0572 80.5303 91.829 78.7323 95.5134 75.808C96.3241 75.1657 102.498 72.1838 102.565 72.5064C103.587 77.3973 109.217 80.2771 107.119 84.8118C106.643 85.8401 106.142 86.7804 105.674 87.5435C104.132 90.0534 99.9714 94.126 101.269 96.4701C101.421 96.7464 101.297 97.1379 100.988 97.2006C97.5434 97.8985 94.1242 98.6951 90.6292 99.1502C88.2406 99.461 85.4691 100.183 83.4881 98.8246Z" fill="#F08428"/>
<path d="M135.632 139.506C135.799 139.46 135.955 139.41 136.099 139.357C137.396 138.883 136.736 137.513 135.415 137.111C134.876 136.947 134.363 136.734 133.943 136.426C133.35 135.992 132.584 135.87 131.891 136.117C131.125 136.392 130.054 137.353 130.175 138.159C130.22 138.458 130.302 138.709 130.453 138.827C130.999 139.258 132.27 139.012 132.901 139.312C133.33 139.517 134.13 139.365 134.939 139.523C135.169 139.568 135.408 139.576 135.632 139.506Z" fill="#F08428"/>
<path d="M114.241 45.4718C118.901 47.1085 122.993 50.9651 126.456 54.2238C126.386 54.1572 125.8 55.9316 120.11 54.8246C117.055 54.2282 113.736 55.1561 111.138 56.8935C108.884 58.403 105.896 60.5799 105.753 63.4583C105.725 64.0191 106.088 64.7606 105.905 65.3747C105.128 67.9956 102.117 67.5028 101.094 65.6515C100.463 64.5105 100.227 63.4006 99.4289 62.2551C98.6399 61.126 97.8618 60.0753 97.4355 58.7582C95.6576 53.2559 99.9543 47.5258 105.344 45.4984C108.501 44.31 111.471 44.498 114.241 45.4718Z" fill="#F08428"/>
<path d="M102.026 50.206C100.928 51.1285 99.9054 50.6969 100.823 49.5962C102.055 48.1196 103.702 47.1004 105.553 46.4412C108.666 45.3327 112.293 45.4644 115.277 46.8763C117.965 48.1475 123.074 51.3781 126.023 54.2328C124.461 53.0903 123.041 51.8886 121.541 50.98C118.391 49.0724 114.781 47.5452 111.013 47.3498C108.088 47.1989 105.519 48.0542 103.056 49.4838C102.673 49.7058 102.334 49.9485 102.026 50.206Z" fill="white"/>
<path d="M116.51 53.5615C115.464 53.6275 114.034 54.6136 115.062 54.4073C115.864 54.2464 118.47 53.5319 117.653 53.5276C117.294 53.5257 116.911 53.5363 116.51 53.5615Z" fill="white"/>
<path d="M124.155 138.461C123.987 137.354 125.027 136.976 126.136 137.133C127.213 137.287 128.908 137.2 129.962 137.472C133.121 138.284 135.755 136.459 136.84 137.691C138.916 140.051 128.891 140.964 125.005 139.408C124.67 139.274 124.352 139.058 124.223 138.72C124.19 138.633 124.168 138.547 124.155 138.461Z" fill="#F08428"/>
<path d="M131.8 95.7494C131.72 95.8619 131.602 95.9788 131.461 96.0898C131.005 96.4361 130.312 96.6995 129.964 96.4405C129.455 96.0631 129.536 94.635 128.931 94.0801C127.673 92.9184 125.279 92.7541 123.604 92.7541C123.229 92.7541 120.045 92.6254 119.961 92.9583L120.037 92.538C120.206 91.6155 120.947 90.8996 121.88 90.8032C122.926 90.6949 123.978 90.6241 125.028 90.5876C126.206 90.5432 127.412 90.5284 128.586 90.6823C129.336 90.7799 131.258 90.8791 131.712 91.4267C132.313 92.1474 132.34 94.9932 131.8 95.7494Z" fill="#EFCAA1"/>
<path d="M131.413 94.4769C131.728 95.4639 130.796 97.058 129.964 96.4403C129.455 96.0629 129.536 94.6348 128.931 94.0799C127.673 92.9182 125.279 92.7539 123.604 92.7539C123.229 92.7539 120.045 92.6251 119.961 92.9581C120.006 92.7079 120.208 92.5154 120.461 92.4853C121.747 92.3326 123.042 92.2364 124.335 92.1871C125.828 92.1294 127.432 92.1294 128.894 92.5526C129.638 92.7687 130.376 93.1031 130.909 93.6596C131.168 93.9293 131.324 94.1981 131.413 94.4769Z" fill="#DEB28C"/>
<path d="M95.8925 88.4221C96.0925 86.5267 97.8074 85.1922 99.7086 85.3251C101.851 85.4749 103.421 87.4049 103.132 89.5333L103.097 89.7891C102.711 92.6246 105.369 94.92 108.118 94.1248L119.94 90.7055C120.852 90.4414 121.788 91.0455 121.923 91.9862C122.015 92.6256 121.71 93.2514 121.142 93.5589C118.213 95.1444 108.867 100.039 100.015 102.903C99.4351 103.091 94.6095 100.58 95.8925 88.4221Z" fill="#E3DFD5"/>
<path d="M95.6512 84.3951C98.7649 88.6267 107.535 83.8504 105.778 78.8993C104.764 76.0475 98.8135 73.7981 95.5413 83.885C95.4802 84.0512 95.5239 84.2222 95.6512 84.3951Z" fill="white"/>
<path d="M38.1243 90.999C36.4707 90.999 35.1686 89.5498 35.5714 87.946C36.1729 85.7351 39.2048 83.5626 41.8228 83.2592C45.1541 82.9115 48.4853 82.7101 51.8165 82.6525C55.6325 82.5865 57.3273 87.149 54.5668 89.7845C53.7503 90.564 52.6649 90.999 51.536 90.999H38.1243Z" fill="#523720"/>
<path d="M60.499 84.1209C61.3101 83.3465 62.4099 82.9456 63.5277 83.035C64.3444 83.1003 65.1612 83.1736 65.9775 83.259C68.5955 83.5623 71.6274 85.7363 72.2289 87.9458C72.6315 89.5488 71.3302 90.9988 69.6773 90.9988H63.2551C59.6546 90.9988 57.8948 86.6071 60.499 84.1209Z" fill="#523720"/>
<path d="M69.0468 95.8573C71.0969 95.8573 72.7282 97.6249 72.2285 99.6132C71.6255 101.823 68.5952 103.997 65.9771 104.3C57.9246 105.139 49.8737 105.139 41.8227 104.3C40.8923 104.193 40.6694 103.054 41.3468 102.407L46.4915 97.4955C47.5928 96.444 49.057 95.8573 50.5797 95.8573H69.0468Z" fill="#523720"/>
<path d="M51.111 93.0838C51.1994 92.9995 51.3169 92.9524 51.4391 92.9524H72.4673C72.7284 92.9524 72.9431 93.1594 72.947 93.4205C72.951 93.6871 72.734 93.9025 72.4673 93.9025H51.4391C51.0105 93.9025 50.8011 93.3798 51.111 93.0838Z" fill="#F08428"/>
<path d="M41.6241 102.143C40.5802 103.139 39.0037 103.475 37.8531 102.604C36.7349 101.757 35.8646 100.69 35.5715 99.6132C35.0719 97.6256 36.7024 95.8573 38.7519 95.8573H39.1055C42.3958 95.8573 44.004 99.8706 41.6241 102.143Z" fill="#523720"/>
<path d="M50.3911 93.771C50.3027 93.8554 50.1852 93.9025 50.063 93.9025H35.3326C35.066 93.9025 34.849 93.6871 34.853 93.4205C34.8569 93.1594 35.0715 92.9524 35.3326 92.9524H50.063C50.4916 92.9524 50.701 93.4751 50.3911 93.771Z" fill="#F08428"/>
<path d="M33.1657 92.1562V91.798C33.1657 91.3585 33.5408 90.9989 34.0011 90.9989C34.5429 90.9989 34.9605 91.472 34.9169 92.012C34.897 92.2595 34.8812 92.5069 34.8707 92.754C34.8656 92.865 34.7772 92.9523 34.6661 92.9523H34.0011C33.5408 92.9523 33.1657 92.5942 33.1657 92.1562Z" fill="#F8A22E"/>
<path d="M72.8634 91.7759C72.8258 91.3616 73.1475 90.9989 73.5634 90.9989C74.0238 90.9989 74.3989 91.3585 74.3989 91.798V92.1562C74.3989 92.5942 74.0238 92.9523 73.5634 92.9523H73.134C73.023 92.9523 72.9336 92.8651 72.931 92.754C72.9163 92.4283 72.893 92.1021 72.8634 91.7759Z" fill="#F8A22E"/>
<path d="M51.7125 92.511C51.5492 92.667 51.3321 92.754 51.1062 92.754H35.8229C35.3038 92.754 34.8884 92.3227 34.9348 91.8058C34.9761 91.3455 35.3677 90.9989 35.8298 90.9989H51.1062C51.8977 90.9989 52.2848 91.9642 51.7125 92.511Z" fill="#F8A22E"/>
<path d="M53.6465 92.754C52.855 92.754 52.468 91.7888 53.0402 91.242C53.2035 91.086 53.4206 90.9989 53.6465 90.9989H71.9719C72.4337 90.9989 72.8245 91.3458 72.8657 91.8057C72.912 92.3223 72.4974 92.754 71.9788 92.754H53.6465Z" fill="#F8A22E"/>
<path d="M51.4293 92.7811C51.4478 92.7636 51.4722 92.7539 51.4975 92.7539H72.8352C72.8884 92.7539 72.9317 92.7969 72.9326 92.8501C72.9335 92.906 72.8888 92.9522 72.8329 92.9522H51.4975C51.4079 92.9522 51.3643 92.8427 51.4293 92.7811Z" fill="#F8A22E"/>
<path d="M51.2092 92.7539C51.2989 92.7539 51.3425 92.8634 51.2774 92.925C51.259 92.9425 51.2346 92.9522 51.2092 92.9522H34.9686C34.912 92.9522 34.8666 92.9055 34.8679 92.8489C34.8692 92.796 34.9125 92.7539 34.9654 92.7539H51.2092Z" fill="#F8A22E"/>
<path d="M73.5634 93.9025C74.0238 93.9025 74.3989 94.2621 74.3989 94.7016V95.0583C74.3989 95.4978 74.0238 95.8574 73.5634 95.8574C73.1852 95.8574 72.889 95.5332 72.9108 95.1556C72.923 94.9424 72.9324 94.7293 72.9389 94.5162C72.9492 94.1769 73.224 93.9025 73.5634 93.9025Z" fill="#F8A22E"/>
<path d="M34.0012 95.8574C33.5408 95.8574 33.1657 95.4978 33.1657 95.0583V94.7016C33.1657 94.2621 33.5408 93.9025 34.0012 93.9025C34.471 93.9025 34.8509 94.2822 34.8696 94.7516C34.8718 94.8083 34.8743 94.865 34.8769 94.9217C34.9006 95.4256 34.5056 95.8574 34.0012 95.8574Z" fill="#F8A22E"/>
<path d="M48.4907 95.5867C48.3088 95.7604 48.067 95.8574 47.8155 95.8574H35.8734C35.3449 95.8574 34.9018 95.4521 34.877 94.9241C34.8505 94.3605 35.3093 93.9025 35.8735 93.9025H47.8155C48.6971 93.9025 49.1281 94.9776 48.4907 95.5867Z" fill="#F8A22E"/>
<path d="M49.97 94.1732C50.1519 93.9994 50.3937 93.9025 50.6453 93.9025H71.9251C72.4899 93.9025 72.9494 94.3611 72.9225 94.9252C72.8973 95.4529 72.4541 95.8574 71.9259 95.8574H50.6453C49.7637 95.8574 49.3326 94.7822 49.97 94.1732Z" fill="#F8A22E"/>
<path d="M40.0628 69.1642C40.0628 77.4445 47.1499 84.1572 55.8924 84.1572C64.6346 84.1572 71.7217 77.4445 71.7217 69.1642C71.7217 60.8836 64.6346 54.1709 55.8924 54.1709C47.1499 54.1709 40.0628 60.8836 40.0628 69.1642Z" fill="#F2F2F2"/>
<path d="M55.9877 84.034H55.9914C56.0897 84.034 56.1694 83.9585 56.1694 83.8651V83.0178C56.1694 82.9247 56.0897 82.8492 55.9914 82.8492H55.9877C55.8894 82.8492 55.8097 82.9247 55.8097 83.0178V83.8651C55.8097 83.9585 55.8894 84.034 55.9877 84.034Z" fill="#113542"/>
<path d="M55.9877 55.2328H55.9914C56.0897 55.2328 56.1694 55.1571 56.1694 55.064V54.2167C56.1694 54.1234 56.0897 54.0479 55.9914 54.0479H55.9877C55.8894 54.0479 55.8097 54.1234 55.8097 54.2167V55.064C55.8097 55.1571 55.8894 55.2328 55.9877 55.2328Z" fill="#113542"/>
<path d="M40.0629 69.1388V69.1421C40.0629 69.2354 40.1426 69.3109 40.2409 69.3112L41.1354 69.3125C41.234 69.3125 41.3137 69.2373 41.314 69.1439V69.1407C41.3142 69.0476 41.2345 68.9718 41.136 68.9716L40.2414 68.9702C40.1432 68.9702 40.0632 69.0457 40.0629 69.1388Z" fill="#113542"/>
<path d="M70.4709 69.1842V69.1875C70.4706 69.2808 70.5503 69.3563 70.6486 69.3566L71.5434 69.3579C71.6417 69.3579 71.7217 69.2827 71.7217 69.1894V69.1861C71.722 69.0927 71.6423 69.0172 71.544 69.017L70.6492 69.0156C70.5509 69.0156 70.4709 69.0911 70.4709 69.1842Z" fill="#113542"/>
<path d="M44.2702 79.4586L44.2727 79.461C44.3424 79.5268 44.455 79.5265 44.5244 79.4605L45.1561 78.8603C45.2255 78.7943 45.2253 78.6874 45.1555 78.6219L45.153 78.6195C45.0833 78.5534 44.9707 78.5537 44.9013 78.6197L44.2696 79.2202C44.2002 79.2862 44.2004 79.3929 44.2702 79.4586Z" fill="#113542"/>
<path d="M65.7326 59.0554L65.7351 59.0579C65.8048 59.1236 65.9174 59.1234 65.9868 59.0573L66.6185 58.4571C66.6879 58.3911 66.6877 58.2842 66.6179 58.2185L66.6154 58.216C66.5457 58.1503 66.4328 58.1505 66.3634 58.2166L65.732 58.8168C65.6626 58.8828 65.6628 58.9897 65.7326 59.0554Z" fill="#113542"/>
<path d="M44.7433 58.4879L44.7408 58.4901C44.6705 58.5553 44.6694 58.6622 44.7379 58.7287L45.3633 59.3349C45.4322 59.4015 45.5447 59.4026 45.615 59.3376L45.6179 59.3352C45.6882 59.27 45.6893 59.1633 45.6207 59.0965L44.9953 58.4906C44.9265 58.424 44.8136 58.4227 44.7433 58.4879Z" fill="#113542"/>
<path d="M65.9971 79.0853L65.9946 79.0877C65.9243 79.1527 65.9231 79.2596 65.9917 79.3262L66.6171 79.9323C66.686 79.9989 66.7985 80 66.8691 79.935L66.8717 79.9326C66.942 79.8674 66.9434 79.7607 66.8745 79.6939L66.2491 79.088C66.1803 79.0214 66.0677 79.0201 65.9971 79.0853Z" fill="#113542"/>
<path d="M55.8924 54.4558C64.4192 54.4558 71.356 61.0262 71.356 69.1024C71.356 77.1787 64.4192 83.7491 55.8924 83.7491C47.3657 83.7491 40.4286 77.1787 40.4286 69.1024C40.4286 61.0262 47.3657 54.4558 55.8924 54.4558ZM55.8924 84.4418C60.2182 84.4418 64.2852 82.8463 67.3439 79.9492C70.4029 77.0518 72.0874 73.1997 72.0874 69.1024C72.0874 65.0052 70.4029 61.1531 67.3439 58.256C64.2852 55.3586 60.2182 53.7631 55.8924 53.7631C51.5666 53.7631 47.4997 55.3586 44.4407 58.256C41.3819 61.1531 39.6972 65.0052 39.6972 69.1024C39.6972 73.1997 41.3819 77.0518 44.4407 79.9492C47.4997 82.8463 51.5666 84.4418 55.8924 84.4418Z" fill="#113542"/>
<path d="M55.6447 83.7473C55.7358 83.7486 55.8101 83.6749 55.8101 83.5838C55.8101 83.4934 55.7368 83.4201 55.6464 83.4187C51.5266 83.3563 47.8017 81.7244 45.1107 79.1287C45.0451 79.0654 44.9413 79.0644 44.8753 79.1272C44.8062 79.1929 44.8051 79.3028 44.8738 79.369C47.6269 82.0192 51.4342 83.6842 55.6447 83.7473ZM56.1698 83.5797C56.1698 83.6715 56.2453 83.7456 56.337 83.7431C60.1802 83.6398 63.6768 82.2021 66.3274 79.9027C66.4013 79.8386 66.4037 79.7251 66.3334 79.6569C66.2702 79.5957 66.1705 79.5935 66.1041 79.6513C63.5126 81.9038 60.092 83.3127 56.3315 83.4147C56.2419 83.4171 56.1698 83.4901 56.1698 83.5797ZM66.6082 79.4357C66.6725 79.4982 66.7747 79.4993 66.8397 79.4375C69.5294 76.8816 71.2311 73.3921 71.3496 69.5338C71.3526 69.4371 71.2746 69.3573 71.1778 69.3572C71.0832 69.357 71.0061 69.433 71.0032 69.5275C70.8868 73.2909 69.2294 76.6943 66.6101 79.1908C66.5403 79.2573 66.539 79.3686 66.6082 79.4357ZM44.3865 78.8778C44.4503 78.9451 44.5564 78.9472 44.6236 78.8834C44.6917 78.8187 44.6938 78.7109 44.6293 78.6427C42.3171 76.1962 40.8779 72.9949 40.781 69.4825C40.7784 69.3879 40.7014 69.3116 40.6068 69.3115C40.5099 69.3113 40.4316 69.3908 40.4342 69.4877C40.5328 73.0901 42.0112 76.3724 44.3865 78.8778ZM71.1813 69.0162C71.2776 69.0164 71.3556 68.9378 71.3538 68.8416C71.2796 64.8381 69.501 61.2211 66.6776 58.6154C66.613 58.5557 66.5132 58.557 66.4495 58.6176C66.3785 58.685 66.38 58.7986 66.4519 58.8651C69.2021 61.4106 70.9338 64.939 71.0072 68.8438C71.009 68.9389 71.0862 69.0161 71.1813 69.0162ZM40.6044 68.9706C40.6995 68.9707 40.7768 68.8939 40.7789 68.7988C40.8611 65.0824 42.4453 61.7096 44.9787 59.2046C45.0465 59.1376 45.0467 59.0278 44.9783 58.9614C44.913 58.8981 44.8091 58.898 44.7443 58.9618C42.1427 61.5268 40.5152 64.9844 40.4324 68.7955C40.4303 68.8918 40.5081 68.9706 40.6044 68.9706ZM45.2443 58.7316C45.3084 58.7937 45.4098 58.7949 45.4761 58.7351C48.1342 56.3378 51.7099 54.8456 55.6465 54.7858C55.7369 54.7845 55.8101 54.7112 55.8101 54.6209C55.8101 54.5299 55.7358 54.4562 55.6449 54.4576C51.6217 54.5176 47.9669 56.0401 45.248 58.4876C45.1761 58.5523 45.1748 58.6643 45.2443 58.7316ZM65.9387 58.4117C66.0047 58.4674 66.1022 58.4651 66.1647 58.4055C66.2367 58.3371 66.234 58.2214 66.158 58.1574C63.5287 55.9424 60.0992 54.5626 56.337 54.4615C56.2453 54.459 56.1698 54.5331 56.1698 54.6249C56.1698 54.7145 56.2419 54.7875 56.3315 54.7899C60.0125 54.8897 63.3679 56.2419 65.9387 58.4117Z" fill="#D5DADB"/>
<path d="M55.8923 83.749C55.9309 83.749 55.9695 83.7489 56.0081 83.7487C56.0977 83.7482 56.1694 83.6751 56.1694 83.5855C56.1694 83.4937 56.0941 83.4197 56.0023 83.4204C55.9657 83.4206 55.929 83.4208 55.8923 83.4208C55.8468 83.4208 55.8097 83.4576 55.8097 83.5031V83.6664C55.8097 83.7121 55.8467 83.749 55.8923 83.749Z" fill="#113542"/>
<path d="M56.0025 54.7843C56.0942 54.785 56.1694 54.7112 56.1694 54.6195C56.1694 54.5298 56.0975 54.4567 56.0078 54.4561C55.9694 54.4558 55.9309 54.4557 55.8923 54.4557C55.8466 54.4557 55.8097 54.4928 55.8097 54.5385V54.7016C55.8097 54.7471 55.8468 54.7839 55.8923 54.7839C55.9291 54.7839 55.9658 54.7841 56.0025 54.7843Z" fill="#113542"/>
<path d="M40.6008 69.3117C40.6978 69.3118 40.7759 69.2324 40.7757 69.1354C40.7756 69.1244 40.7756 69.1135 40.7756 69.1025C40.7756 69.03 40.7172 68.9709 40.6447 68.9709L40.5614 68.9708C40.4884 68.9707 40.4288 69.0294 40.4288 69.1025C40.4288 69.1153 40.4288 69.1282 40.4288 69.1411C40.4291 69.2357 40.5063 69.3115 40.6008 69.3117Z" fill="#113542"/>
<path d="M71.183 69.3575C71.2777 69.3576 71.3551 69.2818 71.3557 69.1871C71.3559 69.159 71.356 69.1308 71.356 69.1026C71.356 69.055 71.3174 69.0167 71.2699 69.0166L71.0954 69.0164C71.0479 69.0163 71.0094 69.055 71.0094 69.1026C71.0094 69.1288 71.0093 69.155 71.0092 69.1813C71.0086 69.278 71.0863 69.3573 71.183 69.3575Z" fill="#113542"/>
<path d="M44.633 79.132C44.6972 79.1966 44.8013 79.1976 44.8674 79.1348C44.9364 79.0692 44.9374 78.9595 44.8703 78.8918C44.8682 78.8898 44.8662 78.8877 44.8641 78.8856C44.7989 78.8198 44.693 78.8176 44.6258 78.8814C44.5578 78.946 44.5556 79.0539 44.6217 79.1205C44.6254 79.1244 44.6292 79.1282 44.633 79.132Z" fill="#113542"/>
<path d="M66.2017 58.6392C66.2676 58.6974 66.3671 58.6961 66.4308 58.6356C66.5019 58.568 66.5005 58.4542 66.427 58.3894C66.4226 58.3855 66.4182 58.3816 66.4137 58.3777C66.349 58.3207 66.2515 58.3232 66.189 58.3827C66.117 58.4512 66.1199 58.5669 66.1944 58.6327C66.1968 58.6349 66.1993 58.637 66.2017 58.6392Z" fill="#113542"/>
<path d="M44.9862 58.9694C45.0514 59.0327 45.1551 59.0327 45.2212 58.9703C45.2235 58.9682 45.2257 58.9661 45.228 58.964C45.2984 58.8976 45.2998 58.7857 45.2303 58.7184C45.1662 58.6563 45.0647 58.6549 44.9997 58.716C44.9955 58.7199 44.9914 58.7239 44.9872 58.7278C44.9178 58.7932 44.9177 58.9031 44.9862 58.9694Z" fill="#113542"/>
<path d="M66.3511 79.6747C66.4143 79.736 66.5142 79.7382 66.5794 79.679C66.5837 79.6751 66.588 79.6712 66.5923 79.6673C66.6636 79.6025 66.6647 79.4911 66.5956 79.424C66.5312 79.3615 66.4292 79.3606 66.3629 79.4209C66.3605 79.4231 66.3582 79.4252 66.3558 79.4273C66.2834 79.4931 66.2809 79.6065 66.3511 79.6747Z" fill="#113542"/>
<path d="M55.8924 84.0273C60.1014 84.0273 64.0583 82.4748 67.0345 79.6559C70.0103 76.837 71.6494 73.0891 71.6494 69.1025C71.6494 65.1159 70.0103 61.368 67.0345 58.5491C64.0583 55.7302 60.1014 54.178 55.8924 54.178C51.6835 54.178 47.7265 55.7302 44.7503 58.5491C41.7742 61.368 40.1351 65.1162 40.1351 69.1025C40.1351 73.0891 41.7742 76.837 44.7503 79.6559C47.7265 82.4748 51.6835 84.0273 55.8924 84.0273ZM56.1695 83.747C56.0773 83.7486 55.985 83.7491 55.8924 83.7491C55.8647 83.7491 55.8373 83.7491 55.8098 83.7491C51.4695 83.7275 47.5465 82.0034 44.7486 79.2476C44.6658 79.1656 44.5832 79.0825 44.5021 78.9989C42.0199 76.4381 40.4854 73.0415 40.4303 69.3114C40.4291 69.2421 40.4285 69.1721 40.4285 69.1025C40.4285 69.0587 40.4288 69.0143 40.4294 68.9707C40.466 65.0337 42.151 61.463 44.8609 58.8481C44.9449 58.7672 45.0301 58.6868 45.116 58.6078C47.8848 56.0563 51.656 54.4767 55.8098 54.4562C55.8373 54.4559 55.8647 54.4559 55.8924 54.4559C55.985 54.4559 56.0773 54.4567 56.1695 54.4581C60.0651 54.5233 63.6132 55.9594 66.2988 58.2779C66.3877 58.3543 66.4754 58.4319 66.5622 58.5104C69.4938 61.161 71.3306 64.8894 71.3557 69.0167C71.356 69.0454 71.356 69.0741 71.356 69.1025C71.356 69.1878 71.3551 69.2727 71.3537 69.3577C71.2814 73.3416 69.5212 76.9436 66.7228 79.5474C66.6374 79.627 66.5508 79.7057 66.4634 79.7834C63.7589 82.1861 60.1448 83.6804 56.1695 83.747Z" fill="#113542"/>
<path d="M55.8925 84.0963C60.1209 84.0963 64.0961 82.5365 67.0863 79.7046C70.0762 76.8727 71.7227 73.1072 71.7227 69.1022C71.7227 65.0972 70.0762 61.332 67.0863 58.4998C64.0961 55.6679 60.1209 54.1084 55.8925 54.1084C51.6641 54.1084 47.6889 55.6679 44.6987 58.4998C41.7089 61.332 40.0621 65.0972 40.0621 69.1022C40.0621 73.1072 41.7089 76.8727 44.6987 79.7046C47.6889 82.5365 51.6641 84.0963 55.8925 84.0963ZM55.8925 54.1777C60.1015 54.1777 64.0584 55.7299 67.0346 58.5488C70.0104 61.3677 71.6495 65.1156 71.6495 69.1022C71.6495 73.0888 70.0104 76.8367 67.0346 79.6556C64.0584 82.4745 60.1015 84.027 55.8925 84.027C51.6836 84.027 47.7266 82.4745 44.7505 79.6556C41.7743 76.8367 40.1352 73.0888 40.1352 69.1022C40.1352 65.1159 41.7743 61.3677 44.7505 58.5488C47.7266 55.7299 51.6836 54.1777 55.8925 54.1777Z" fill="#0F2E39"/>
<path d="M55.7751 83.4203C55.7943 83.4204 55.81 83.4049 55.81 83.3857C55.81 83.3666 55.7945 83.3512 55.7754 83.351C51.5763 83.3208 47.7824 81.6532 45.0695 78.9899C45.0559 78.9765 45.034 78.9763 45.0201 78.9895C45.0056 79.0033 45.0054 79.0264 45.0197 79.0404C47.7452 81.7147 51.5575 83.39 55.7751 83.4203ZM56.1697 83.3831C56.1697 83.4025 56.1856 83.4181 56.205 83.4177C60.0583 83.3435 63.5619 81.8969 66.1926 79.5738C66.208 79.5601 66.2085 79.5361 66.1937 79.5218C66.1804 79.5088 66.1594 79.5084 66.1454 79.5207C63.5272 81.834 60.0398 83.2742 56.2038 83.3484C56.1849 83.3488 56.1697 83.3642 56.1697 83.3831ZM66.4567 79.2889C66.4703 79.3021 66.4918 79.3023 66.5056 79.2894C69.2165 76.7551 70.9246 73.2604 71.0065 69.3942C71.007 69.3738 70.9906 69.357 70.9702 69.3569C70.9502 69.3568 70.9338 69.3729 70.9334 69.3929C70.8518 73.2387 69.1533 76.7157 66.4572 79.2373C66.4423 79.2512 66.442 79.2748 66.4567 79.2889ZM44.7226 78.7407C44.7361 78.7548 44.7585 78.7553 44.7726 78.7418C44.787 78.7282 44.7875 78.7055 44.7738 78.6912C42.3911 76.2143 40.9155 72.9406 40.851 69.3479C40.8506 69.328 40.8343 69.3119 40.8144 69.3119C40.7939 69.3119 40.7775 69.3287 40.7778 69.3491C40.8424 72.961 42.3261 76.2513 44.7226 78.7407ZM70.9725 69.0161C70.9928 69.0161 71.0092 68.9995 71.009 68.9792C70.973 64.969 69.188 61.3467 66.3423 58.7649C66.3285 58.7524 66.3074 58.7527 66.2939 58.7655C66.2789 58.7798 66.2792 58.8039 66.2945 58.8178C69.1249 61.3867 70.9003 64.9901 70.9359 68.9796C70.936 68.9998 70.9524 69.0161 70.9725 69.0161ZM40.8129 68.971C40.833 68.9711 40.8494 68.9548 40.8496 68.9347C40.896 65.1358 42.5197 61.6905 45.128 59.158C45.1424 59.144 45.1425 59.1208 45.128 59.1068C45.1142 59.0935 45.0924 59.0935 45.0786 59.1068C42.4559 61.6516 40.8233 65.1155 40.7765 68.934C40.7762 68.9543 40.7926 68.971 40.8129 68.971ZM45.3855 58.8685C45.399 58.8816 45.4204 58.8819 45.4343 58.8691C48.1173 56.4083 51.7616 54.8828 55.7754 54.8538C55.7945 54.8537 55.81 54.8382 55.81 54.8191C55.81 54.7999 55.7943 54.7844 55.7751 54.7845C51.7431 54.8136 48.0819 56.3456 45.3861 58.8169C45.3711 58.8307 45.3708 58.8543 45.3855 58.8685ZM65.9784 58.5387C65.9922 58.5505 66.0127 58.55 66.0259 58.5375C66.0411 58.5231 66.0406 58.4987 66.0246 58.485C63.4136 56.2474 59.9769 54.8598 56.205 54.7871C56.1856 54.7867 56.1697 54.8023 56.1697 54.8217C56.1697 54.8406 56.1849 54.856 56.2038 54.8564C59.9585 54.9289 63.3799 56.3111 65.9784 58.5387Z" fill="#D3D3D3"/>
<path d="M55.8923 83.4216C55.9733 83.4216 56.0544 83.421 56.135 83.4198C56.1541 83.4195 56.1694 83.4039 56.1694 83.3848C56.1694 83.3652 56.1534 83.3494 56.1338 83.3497C56.0534 83.351 55.973 83.3516 55.8923 83.3516C55.8766 83.3516 55.8609 83.3516 55.8451 83.3515C55.8256 83.3515 55.8097 83.3672 55.8097 83.3867C55.8097 83.4059 55.8252 83.4215 55.8444 83.4216C55.8604 83.4216 55.8764 83.4216 55.8923 83.4216Z" fill="#0F2E39"/>
<path d="M56.1338 54.8559C56.1534 54.8562 56.1694 54.8404 56.1694 54.8208C56.1694 54.8017 56.1541 54.7861 56.135 54.7858C56.0544 54.7846 55.9733 54.7839 55.8923 54.7839C55.8764 54.7839 55.8604 54.7839 55.8444 54.784C55.8252 54.7841 55.8097 54.7997 55.8097 54.8189C55.8097 54.8384 55.8256 54.8541 55.8451 54.854C55.8609 54.854 55.8766 54.854 55.8923 54.854C55.973 54.854 56.0534 54.8546 56.1338 54.8559Z" fill="#0F2E39"/>
<path d="M40.8135 69.312C40.8336 69.312 40.8498 69.2955 40.8496 69.2754C40.8488 69.2179 40.8484 69.1604 40.8484 69.1026C40.8484 69.071 40.8486 69.0392 40.8487 69.0075C40.8489 68.9875 40.8328 68.9713 40.8128 68.9712C40.793 68.9711 40.7768 68.9871 40.7767 69.007C40.7765 69.0389 40.7763 69.0707 40.7763 69.1026C40.7763 69.1606 40.7767 69.2186 40.7775 69.2766C40.7778 69.2963 40.7938 69.312 40.8135 69.312Z" fill="#0F2E39"/>
<path d="M70.9719 69.3571C70.9917 69.3571 71.0078 69.3413 71.0081 69.3216C71.0091 69.2489 71.0098 69.1756 71.0098 69.1026C71.0098 69.0856 71.0098 69.0688 71.0097 69.0519C71.0096 69.0322 70.9936 69.0162 70.9738 69.0162C70.9537 69.0162 70.9376 69.0326 70.9376 69.0526C70.9377 69.0693 70.9377 69.086 70.9377 69.1026C70.9377 69.1753 70.9371 69.248 70.936 69.3204C70.9357 69.3405 70.9518 69.357 70.9719 69.3571Z" fill="#0F2E39"/>
<path d="M44.969 78.9906C44.9826 79.0041 45.0045 79.0043 45.0184 78.9911C45.0329 78.9773 45.0331 78.9542 45.0189 78.9401C44.9532 78.8748 44.8879 78.8088 44.8232 78.7424C44.8096 78.7284 44.7873 78.728 44.7731 78.7414C44.7587 78.755 44.7582 78.7778 44.772 78.792C44.837 78.8588 44.9027 78.925 44.969 78.9906Z" fill="#0F2E39"/>
<path d="M66.2416 58.7698C66.2555 58.7823 66.2766 58.782 66.2901 58.7692C66.3051 58.7549 66.3047 58.7308 66.2893 58.717C66.2198 58.6547 66.1492 58.5925 66.0787 58.5314C66.0649 58.5195 66.0444 58.52 66.0312 58.5325C66.016 58.547 66.0165 58.5714 66.0324 58.5851C66.1026 58.6461 66.1725 58.7076 66.2416 58.7698Z" fill="#0F2E39"/>
<path d="M45.1298 59.1086C45.1436 59.1219 45.1655 59.1219 45.1793 59.1086C45.2462 59.0443 45.3139 58.9806 45.382 58.9175C45.397 58.9036 45.3973 58.88 45.3826 58.8658C45.3691 58.8527 45.3477 58.8524 45.3339 58.8652C45.2653 58.9287 45.1972 58.9927 45.1299 59.0575C45.1154 59.0714 45.1154 59.0946 45.1298 59.1086Z" fill="#0F2E39"/>
<path d="M66.1976 79.5257C66.2109 79.5386 66.232 79.539 66.2458 79.5267C66.3156 79.4644 66.3848 79.4017 66.4535 79.3381C66.4685 79.3242 66.4687 79.3007 66.454 79.2865C66.4405 79.2734 66.419 79.2731 66.4051 79.286C66.3368 79.3491 66.268 79.4117 66.1987 79.4736C66.1833 79.4873 66.1828 79.5113 66.1976 79.5257Z" fill="#0F2E39"/>
<path d="M55.9934 69.2151H55.9988C56.1488 69.2151 56.2705 69.1012 56.2705 68.9607V63.1178C56.2705 62.9773 56.1488 62.8634 55.9988 62.8634H55.9934C55.8431 62.8634 55.7214 62.9773 55.7214 63.1178V68.9607C55.7214 69.1012 55.8431 69.2151 55.9934 69.2151Z" fill="#113542"/>
<path d="M55.9959 69.4758H55.9973C56.0371 69.4758 56.0693 69.3619 56.0693 69.2215V63.3785C56.0693 63.2381 56.0371 63.1241 55.9973 63.1241H55.9959C55.9559 63.1241 55.9236 63.2381 55.9236 63.3785V69.2215C55.9236 69.3619 55.9559 69.4758 55.9959 69.4758Z" fill="#F7D77F"/>
<path d="M56.0555 69.373L56.0518 69.369C55.9518 69.2548 55.7266 69.2754 55.5492 69.415L48.163 75.2241C47.9853 75.3637 47.9224 75.5694 48.0224 75.6836L48.0261 75.6877C48.1264 75.8019 48.3513 75.7813 48.529 75.6414L55.9152 69.8325C56.0926 69.6929 56.1555 69.4872 56.0555 69.373Z" fill="#113542"/>
<path d="M55.68 69.6839C55.6701 69.6623 55.6467 69.6517 55.6232 69.6485C55.5995 69.6452 55.6035 69.5965 55.5865 69.6133C55.5804 69.6194 55.557 69.6422 55.4879 69.6965L48.5422 75.1895C48.3822 75.3155 48.2721 75.4408 48.2954 75.4706C48.2958 75.471 48.2961 75.4715 48.2964 75.4719C48.2967 75.4724 48.297 75.4728 48.2973 75.4732C48.324 75.5002 48.4745 75.4209 48.6345 75.2948L55.5773 69.8873C55.6988 69.7918 55.6984 69.7239 55.68 69.6839Z" fill="#8FC5B8"/>
<path d="M55.2076 69.215C55.2076 69.6274 55.5607 69.9619 55.9961 69.9619C56.4318 69.9619 56.7847 69.6274 56.7847 69.215C56.7847 68.8024 56.4318 68.4679 55.9961 68.4679C55.5607 68.4679 55.2076 68.8024 55.2076 69.215Z" fill="#113542"/>
<path d="M55.4879 69.2153C55.4879 69.481 55.7156 69.6967 55.9961 69.6967C56.277 69.6967 56.5044 69.481 56.5044 69.2153C56.5044 68.9493 56.277 68.7339 55.9961 68.7339C55.7156 68.7339 55.4879 68.9493 55.4879 69.2153Z" fill="#F7D77F"/>
</svg>
