<svg width="71" height="68" viewBox="0 0 71 68" fill="none" xmlns="http://www.w3.org/2000/svg">
<path d="M35.5 66.5C54.2101 66.5 69.5 52.0153 69.5 34C69.5 15.9847 54.2101 1.5 35.5 1.5C16.7899 1.5 1.5 15.9847 1.5 34C1.5 52.0153 16.7899 66.5 35.5 66.5Z" stroke="#F08428" stroke-width="3"/>
<path d="M43.0192 16.2559H27.981C21.8695 16.2559 16.8975 20.9984 16.8975 26.8278V41.172C16.8975 47.0012 21.8695 51.7441 27.9811 51.7441H43.0193C49.1306 51.7441 54.103 47.0014 54.103 41.172V26.8278C54.1029 20.9984 49.1307 16.2559 43.0192 16.2559ZM50.36 41.1721C50.36 45.0391 47.0735 48.174 43.0193 48.174H27.9811C23.927 48.174 20.6404 45.0391 20.6404 41.1721V26.8279C20.6404 22.9609 23.927 19.8259 27.9811 19.8259H43.0193C47.0735 19.8259 50.36 22.9611 50.36 26.8279V41.1721Z" fill="#F08428"/>
<path d="M35.5002 24.8213C30.1944 24.8213 25.8774 28.939 25.8774 34C25.8774 39.0606 30.1944 43.1783 35.5002 43.1783C40.8061 43.1783 45.1226 39.0609 45.1226 34C45.1226 28.939 40.8061 24.8213 35.5002 24.8213ZM35.5002 39.6082C32.2529 39.6082 29.6203 37.0975 29.6203 34C29.6203 30.9024 32.2529 28.3914 35.5002 28.3914C38.7476 28.3914 41.3798 30.9023 41.3798 34C41.3798 37.0974 38.7476 39.6082 35.5002 39.6082Z" fill="#F08428"/>
<path d="M47.4467 24.8906C47.4467 26.1052 46.4143 27.09 45.1408 27.09C43.8675 27.09 42.835 26.1052 42.835 24.8906C42.835 23.6759 43.8675 22.6912 45.1408 22.6912C46.4145 22.6912 47.4467 23.6757 47.4467 24.8906Z" fill="#F08428"/>
<path d="M43.0193 16.2559H35.4272V19.8259H43.0193C47.0734 19.8259 50.36 22.9611 50.36 26.8279V41.1721C50.36 45.0391 47.0734 48.174 43.0193 48.174H35.4272V51.7441H43.0193C49.1306 51.7441 54.1028 47.0014 54.1028 41.172V26.8278C54.1028 20.9984 49.1307 16.2559 43.0193 16.2559Z" fill="#F08428"/>
<path d="M35.5001 24.8213C35.4756 24.8213 35.4517 24.823 35.4272 24.823V28.3931C35.4515 28.3928 35.4756 28.3914 35.5001 28.3914C38.7475 28.3914 41.3797 30.9023 41.3797 34C41.3797 37.0974 38.7476 39.6082 35.5001 39.6082C35.4756 39.6082 35.4515 39.6067 35.4272 39.6065V43.1766C35.4517 43.1768 35.4756 43.1783 35.5001 43.1783C40.806 43.1783 45.1225 39.0608 45.1225 34C45.1225 28.939 40.806 24.8213 35.5001 24.8213Z" fill="#F08428"/>
</svg>
