<svg width="64" height="62" viewBox="0 0 64 62" fill="none" xmlns="http://www.w3.org/2000/svg">
<path d="M62.5 31C62.5 47.2479 48.8899 60.5 32 60.5C15.1101 60.5 1.5 47.2479 1.5 31C1.5 14.7521 15.1101 1.5 32 1.5C48.8899 1.5 62.5 14.7521 62.5 31Z" stroke="#F08428" stroke-width="3"/>
<path d="M32.2748 16.5233C33.5935 16.5233 38.0685 16.8805 40.181 21.4578C40.8873 23.0018 40.7185 25.6174 40.581 27.7184L40.5748 27.7971C40.556 28.0272 40.5435 28.2451 40.5373 28.4571C40.6373 28.5176 40.806 28.5721 41.0748 28.5721C41.4748 28.5539 41.956 28.4147 42.4498 28.1846C42.6685 28.0696 42.906 28.0514 43.0685 28.0514C43.3123 28.0514 43.5498 28.0877 43.7498 28.1664C44.3498 28.3602 44.731 28.784 44.731 29.2502C44.7498 29.8315 44.2123 30.334 43.1123 30.7578C42.9935 30.7942 42.831 30.8547 42.656 30.9092C42.056 31.0848 41.1373 31.3754 40.881 31.9567C40.7623 32.2473 40.7998 32.6348 41.0435 33.0768L41.0623 33.0949C41.1435 33.2705 43.0998 37.5815 47.4498 38.2778C47.7873 38.3323 48.031 38.6289 48.0123 38.9377C48.0123 39.0346 47.9935 39.1315 47.9498 39.2283C47.631 39.961 46.2498 40.5059 43.756 40.8692C43.6748 40.9842 43.5935 41.3535 43.5373 41.6078C43.4998 41.8379 43.4373 42.0741 43.356 42.3223C43.256 42.6735 42.9935 42.843 42.6185 42.843H42.581C42.3998 42.843 42.1623 42.8006 41.8623 42.7461C41.381 42.6492 40.8435 42.5705 40.1623 42.5705C39.7623 42.5705 39.3623 42.5887 38.9435 42.6674C38.1435 42.8006 37.4435 43.2668 36.6435 43.8117C35.506 44.5867 34.206 45.4768 32.2498 45.4768C32.1685 45.4768 32.0935 45.4586 32.0123 45.4586H31.8123C29.856 45.4586 28.5748 44.5867 27.4373 43.7936C26.6373 43.2487 25.9623 42.7885 25.1623 42.6492C24.7435 42.5887 24.3248 42.5524 23.9248 42.5524C23.206 42.5524 22.6498 42.6674 22.231 42.7461C21.9498 42.8006 21.7123 42.843 21.5123 42.843C21.0123 42.843 20.8123 42.5524 20.7373 42.2981C20.656 42.0498 20.6185 41.7955 20.556 41.5655C20.4935 41.3293 20.4185 40.9297 20.3373 40.8268C17.781 40.5422 16.406 39.9973 16.0873 39.2405C16.0435 39.1617 16.0185 39.0467 16.0123 38.9498C15.9935 38.635 16.231 38.3504 16.5748 38.2899C20.9248 37.5936 22.881 33.2766 22.9623 33.0949L22.981 33.0586C23.2185 32.6106 23.281 32.2231 23.1373 31.9385C22.8748 31.3754 21.956 31.0908 21.3623 30.891C21.1998 30.8547 21.0435 30.7942 20.8998 30.7397C19.4248 30.1766 19.2248 29.5408 19.306 29.0928C19.4248 28.4752 20.206 28.0696 20.8623 28.0696C21.056 28.0696 21.2248 28.1059 21.3748 28.1664C21.9373 28.4147 22.4248 28.5539 22.8498 28.5539C23.1623 28.5539 23.3623 28.4752 23.4685 28.4207L23.406 27.6881C23.2748 25.5871 23.106 22.9715 23.8123 21.4397C25.8623 16.8865 30.3248 16.5354 31.6435 16.5354L32.1998 16.5172L32.2748 16.5233V16.5233Z" fill="#F08428"/>
</svg>
